<svg xmlns="http://www.w3.org/2000/svg"
            xmlns:xlink="http://www.w3.org/1999/xlink"
            version="1.1" 
            baseProfile="full"
            width="900" height="900"
            viewBox="0 0 900 900">
            <title>TCI Generativ Art Generator 2 Lines Only</title>
            <desc>Generiert mit Python</desc>
            <autor>Thomas Cigolla</autor>
            <date>2022-06-22T15:52:27.170954</date>
            <license>CC BY-NC 4.0</license>


            <rect x="0" y="0" width="900" height="900" fill="black" />

            <g>
<line x1="731" y1="431" x2="910.0" y2="431.0" style="stroke:#ffee58;stroke-width:6;stroke-linecap:round"/>
<line x1="731" y1="431" x2="903.9" y2="477.33" style="stroke:#ffee58;stroke-width:6;stroke-linecap:round"/>
<line x1="731" y1="431" x2="886.02" y2="520.5" style="stroke:#ffee58;stroke-width:6;stroke-linecap:round"/>
<line x1="731" y1="431" x2="857.5699999999999" y2="557.5699999999999" style="stroke:#ffee58;stroke-width:6;stroke-linecap:round"/>
<line x1="731" y1="431" x2="820.5" y2="586.02" style="stroke:#ffee58;stroke-width:6;stroke-linecap:round"/>
<line x1="731" y1="431" x2="777.33" y2="603.9" style="stroke:#ffee58;stroke-width:6;stroke-linecap:round"/>
<line x1="731" y1="431" x2="731.0" y2="610.0" style="stroke:#ffee58;stroke-width:6;stroke-linecap:round"/>
<line x1="731" y1="431" x2="684.67" y2="603.9" style="stroke:#ffee58;stroke-width:6;stroke-linecap:round"/>
<line x1="731" y1="431" x2="641.5" y2="586.02" style="stroke:#ffee58;stroke-width:6;stroke-linecap:round"/>
<line x1="731" y1="431" x2="604.4300000000001" y2="557.5699999999999" style="stroke:#ffee58;stroke-width:6;stroke-linecap:round"/>
<line x1="731" y1="431" x2="575.98" y2="520.5" style="stroke:#ffee58;stroke-width:6;stroke-linecap:round"/>
<line x1="731" y1="431" x2="558.1" y2="477.33" style="stroke:#ffee58;stroke-width:6;stroke-linecap:round"/>
<line x1="731" y1="431" x2="552.0" y2="431.0" style="stroke:#ffee58;stroke-width:6;stroke-linecap:round"/>
<line x1="731" y1="431" x2="558.1" y2="384.67" style="stroke:#ffee58;stroke-width:6;stroke-linecap:round"/>
<line x1="731" y1="431" x2="575.98" y2="341.5" style="stroke:#ffee58;stroke-width:6;stroke-linecap:round"/>
<line x1="731" y1="431" x2="604.4300000000001" y2="304.43" style="stroke:#ffee58;stroke-width:6;stroke-linecap:round"/>
<line x1="731" y1="431" x2="641.5" y2="275.98" style="stroke:#ffee58;stroke-width:6;stroke-linecap:round"/>
<line x1="731" y1="431" x2="684.67" y2="258.1" style="stroke:#ffee58;stroke-width:6;stroke-linecap:round"/>
<line x1="731" y1="431" x2="731.0" y2="252.0" style="stroke:#ffee58;stroke-width:6;stroke-linecap:round"/>
<line x1="731" y1="431" x2="777.33" y2="258.1" style="stroke:#ffee58;stroke-width:6;stroke-linecap:round"/>
<line x1="731" y1="431" x2="820.5" y2="275.98" style="stroke:#ffee58;stroke-width:6;stroke-linecap:round"/>
<line x1="731" y1="431" x2="857.5699999999999" y2="304.43" style="stroke:#ffee58;stroke-width:6;stroke-linecap:round"/>
<line x1="731" y1="431" x2="886.02" y2="341.5" style="stroke:#ffee58;stroke-width:6;stroke-linecap:round"/>
<line x1="731" y1="431" x2="903.9" y2="384.67" style="stroke:#ffee58;stroke-width:6;stroke-linecap:round"/>
</g>
<g>
<line x1="94" y1="90" x2="137.0" y2="90.0" style="stroke:#ffee58;stroke-width:4;stroke-linecap:round"/>
<line x1="94" y1="90" x2="135.53" y2="101.13" style="stroke:#ffee58;stroke-width:4;stroke-linecap:round"/>
<line x1="94" y1="90" x2="131.24" y2="111.5" style="stroke:#ffee58;stroke-width:4;stroke-linecap:round"/>
<line x1="94" y1="90" x2="124.41" y2="120.41" style="stroke:#ffee58;stroke-width:4;stroke-linecap:round"/>
<line x1="94" y1="90" x2="115.5" y2="127.24000000000001" style="stroke:#ffee58;stroke-width:4;stroke-linecap:round"/>
<line x1="94" y1="90" x2="105.13" y2="131.53" style="stroke:#ffee58;stroke-width:4;stroke-linecap:round"/>
<line x1="94" y1="90" x2="94.0" y2="133.0" style="stroke:#ffee58;stroke-width:4;stroke-linecap:round"/>
<line x1="94" y1="90" x2="82.87" y2="131.53" style="stroke:#ffee58;stroke-width:4;stroke-linecap:round"/>
<line x1="94" y1="90" x2="72.5" y2="127.24000000000001" style="stroke:#ffee58;stroke-width:4;stroke-linecap:round"/>
<line x1="94" y1="90" x2="63.59" y2="120.41" style="stroke:#ffee58;stroke-width:4;stroke-linecap:round"/>
<line x1="94" y1="90" x2="56.76" y2="111.5" style="stroke:#ffee58;stroke-width:4;stroke-linecap:round"/>
<line x1="94" y1="90" x2="52.47" y2="101.13" style="stroke:#ffee58;stroke-width:4;stroke-linecap:round"/>
<line x1="94" y1="90" x2="51.0" y2="90.0" style="stroke:#ffee58;stroke-width:4;stroke-linecap:round"/>
<line x1="94" y1="90" x2="52.47" y2="78.87" style="stroke:#ffee58;stroke-width:4;stroke-linecap:round"/>
<line x1="94" y1="90" x2="56.76" y2="68.5" style="stroke:#ffee58;stroke-width:4;stroke-linecap:round"/>
<line x1="94" y1="90" x2="63.59" y2="59.59" style="stroke:#ffee58;stroke-width:4;stroke-linecap:round"/>
<line x1="94" y1="90" x2="72.5" y2="52.76" style="stroke:#ffee58;stroke-width:4;stroke-linecap:round"/>
<line x1="94" y1="90" x2="82.87" y2="48.47" style="stroke:#ffee58;stroke-width:4;stroke-linecap:round"/>
<line x1="94" y1="90" x2="94.0" y2="47.0" style="stroke:#ffee58;stroke-width:4;stroke-linecap:round"/>
<line x1="94" y1="90" x2="105.13" y2="48.47" style="stroke:#ffee58;stroke-width:4;stroke-linecap:round"/>
<line x1="94" y1="90" x2="115.5" y2="52.76" style="stroke:#ffee58;stroke-width:4;stroke-linecap:round"/>
<line x1="94" y1="90" x2="124.41" y2="59.59" style="stroke:#ffee58;stroke-width:4;stroke-linecap:round"/>
<line x1="94" y1="90" x2="131.24" y2="68.5" style="stroke:#ffee58;stroke-width:4;stroke-linecap:round"/>
<line x1="94" y1="90" x2="135.53" y2="78.87" style="stroke:#ffee58;stroke-width:4;stroke-linecap:round"/>
</g>
<g>
<line x1="674" y1="573" x2="858.0" y2="573.0" style="stroke:#ffee58;stroke-width:2;stroke-linecap:round"/>
<line x1="674" y1="573" x2="851.73" y2="620.62" style="stroke:#ffee58;stroke-width:2;stroke-linecap:round"/>
<line x1="674" y1="573" x2="833.35" y2="665.0" style="stroke:#ffee58;stroke-width:2;stroke-linecap:round"/>
<line x1="674" y1="573" x2="804.11" y2="703.11" style="stroke:#ffee58;stroke-width:2;stroke-linecap:round"/>
<line x1="674" y1="573" x2="766.0" y2="732.35" style="stroke:#ffee58;stroke-width:2;stroke-linecap:round"/>
<line x1="674" y1="573" x2="721.62" y2="750.73" style="stroke:#ffee58;stroke-width:2;stroke-linecap:round"/>
<line x1="674" y1="573" x2="674.0" y2="757.0" style="stroke:#ffee58;stroke-width:2;stroke-linecap:round"/>
<line x1="674" y1="573" x2="626.38" y2="750.73" style="stroke:#ffee58;stroke-width:2;stroke-linecap:round"/>
<line x1="674" y1="573" x2="582.0" y2="732.35" style="stroke:#ffee58;stroke-width:2;stroke-linecap:round"/>
<line x1="674" y1="573" x2="543.89" y2="703.11" style="stroke:#ffee58;stroke-width:2;stroke-linecap:round"/>
<line x1="674" y1="573" x2="514.65" y2="665.0" style="stroke:#ffee58;stroke-width:2;stroke-linecap:round"/>
<line x1="674" y1="573" x2="496.27" y2="620.62" style="stroke:#ffee58;stroke-width:2;stroke-linecap:round"/>
<line x1="674" y1="573" x2="490.0" y2="573.0" style="stroke:#ffee58;stroke-width:2;stroke-linecap:round"/>
<line x1="674" y1="573" x2="496.27" y2="525.38" style="stroke:#ffee58;stroke-width:2;stroke-linecap:round"/>
<line x1="674" y1="573" x2="514.65" y2="481.0" style="stroke:#ffee58;stroke-width:2;stroke-linecap:round"/>
<line x1="674" y1="573" x2="543.89" y2="442.89" style="stroke:#ffee58;stroke-width:2;stroke-linecap:round"/>
<line x1="674" y1="573" x2="582.0" y2="413.65" style="stroke:#ffee58;stroke-width:2;stroke-linecap:round"/>
<line x1="674" y1="573" x2="626.38" y2="395.27" style="stroke:#ffee58;stroke-width:2;stroke-linecap:round"/>
<line x1="674" y1="573" x2="674.0" y2="389.0" style="stroke:#ffee58;stroke-width:2;stroke-linecap:round"/>
<line x1="674" y1="573" x2="721.62" y2="395.27" style="stroke:#ffee58;stroke-width:2;stroke-linecap:round"/>
<line x1="674" y1="573" x2="766.0" y2="413.65" style="stroke:#ffee58;stroke-width:2;stroke-linecap:round"/>
<line x1="674" y1="573" x2="804.11" y2="442.89" style="stroke:#ffee58;stroke-width:2;stroke-linecap:round"/>
<line x1="674" y1="573" x2="833.35" y2="481.0" style="stroke:#ffee58;stroke-width:2;stroke-linecap:round"/>
<line x1="674" y1="573" x2="851.73" y2="525.38" style="stroke:#ffee58;stroke-width:2;stroke-linecap:round"/>
</g>
<g>
<line x1="802" y1="894" x2="843.0" y2="894.0" style="stroke:#ffee58;stroke-width:4;stroke-linecap:round"/>
<line x1="802" y1="894" x2="841.6" y2="904.61" style="stroke:#ffee58;stroke-width:4;stroke-linecap:round"/>
<line x1="802" y1="894" x2="837.51" y2="914.5" style="stroke:#ffee58;stroke-width:4;stroke-linecap:round"/>
<line x1="802" y1="894" x2="830.99" y2="922.99" style="stroke:#ffee58;stroke-width:4;stroke-linecap:round"/>
<line x1="802" y1="894" x2="822.5" y2="929.51" style="stroke:#ffee58;stroke-width:4;stroke-linecap:round"/>
<line x1="802" y1="894" x2="812.61" y2="933.6" style="stroke:#ffee58;stroke-width:4;stroke-linecap:round"/>
<line x1="802" y1="894" x2="802.0" y2="935.0" style="stroke:#ffee58;stroke-width:4;stroke-linecap:round"/>
<line x1="802" y1="894" x2="791.39" y2="933.6" style="stroke:#ffee58;stroke-width:4;stroke-linecap:round"/>
<line x1="802" y1="894" x2="781.5" y2="929.51" style="stroke:#ffee58;stroke-width:4;stroke-linecap:round"/>
<line x1="802" y1="894" x2="773.01" y2="922.99" style="stroke:#ffee58;stroke-width:4;stroke-linecap:round"/>
<line x1="802" y1="894" x2="766.49" y2="914.5" style="stroke:#ffee58;stroke-width:4;stroke-linecap:round"/>
<line x1="802" y1="894" x2="762.4" y2="904.61" style="stroke:#ffee58;stroke-width:4;stroke-linecap:round"/>
<line x1="802" y1="894" x2="761.0" y2="894.0" style="stroke:#ffee58;stroke-width:4;stroke-linecap:round"/>
<line x1="802" y1="894" x2="762.4" y2="883.39" style="stroke:#ffee58;stroke-width:4;stroke-linecap:round"/>
<line x1="802" y1="894" x2="766.49" y2="873.5" style="stroke:#ffee58;stroke-width:4;stroke-linecap:round"/>
<line x1="802" y1="894" x2="773.01" y2="865.01" style="stroke:#ffee58;stroke-width:4;stroke-linecap:round"/>
<line x1="802" y1="894" x2="781.5" y2="858.49" style="stroke:#ffee58;stroke-width:4;stroke-linecap:round"/>
<line x1="802" y1="894" x2="791.39" y2="854.4" style="stroke:#ffee58;stroke-width:4;stroke-linecap:round"/>
<line x1="802" y1="894" x2="802.0" y2="853.0" style="stroke:#ffee58;stroke-width:4;stroke-linecap:round"/>
<line x1="802" y1="894" x2="812.61" y2="854.4" style="stroke:#ffee58;stroke-width:4;stroke-linecap:round"/>
<line x1="802" y1="894" x2="822.5" y2="858.49" style="stroke:#ffee58;stroke-width:4;stroke-linecap:round"/>
<line x1="802" y1="894" x2="830.99" y2="865.01" style="stroke:#ffee58;stroke-width:4;stroke-linecap:round"/>
<line x1="802" y1="894" x2="837.51" y2="873.5" style="stroke:#ffee58;stroke-width:4;stroke-linecap:round"/>
<line x1="802" y1="894" x2="841.6" y2="883.39" style="stroke:#ffee58;stroke-width:4;stroke-linecap:round"/>
</g>
<g>
<line x1="894" y1="745" x2="986.0" y2="745.0" style="stroke:#ffee58;stroke-width:5;stroke-linecap:round"/>
<line x1="894" y1="745" x2="982.87" y2="768.81" style="stroke:#ffee58;stroke-width:5;stroke-linecap:round"/>
<line x1="894" y1="745" x2="973.67" y2="791.0" style="stroke:#ffee58;stroke-width:5;stroke-linecap:round"/>
<line x1="894" y1="745" x2="959.05" y2="810.05" style="stroke:#ffee58;stroke-width:5;stroke-linecap:round"/>
<line x1="894" y1="745" x2="940.0" y2="824.67" style="stroke:#ffee58;stroke-width:5;stroke-linecap:round"/>
<line x1="894" y1="745" x2="917.81" y2="833.87" style="stroke:#ffee58;stroke-width:5;stroke-linecap:round"/>
<line x1="894" y1="745" x2="894.0" y2="837.0" style="stroke:#ffee58;stroke-width:5;stroke-linecap:round"/>
<line x1="894" y1="745" x2="870.19" y2="833.87" style="stroke:#ffee58;stroke-width:5;stroke-linecap:round"/>
<line x1="894" y1="745" x2="848.0" y2="824.67" style="stroke:#ffee58;stroke-width:5;stroke-linecap:round"/>
<line x1="894" y1="745" x2="828.95" y2="810.05" style="stroke:#ffee58;stroke-width:5;stroke-linecap:round"/>
<line x1="894" y1="745" x2="814.33" y2="791.0" style="stroke:#ffee58;stroke-width:5;stroke-linecap:round"/>
<line x1="894" y1="745" x2="805.13" y2="768.81" style="stroke:#ffee58;stroke-width:5;stroke-linecap:round"/>
<line x1="894" y1="745" x2="802.0" y2="745.0" style="stroke:#ffee58;stroke-width:5;stroke-linecap:round"/>
<line x1="894" y1="745" x2="805.13" y2="721.19" style="stroke:#ffee58;stroke-width:5;stroke-linecap:round"/>
<line x1="894" y1="745" x2="814.33" y2="699.0" style="stroke:#ffee58;stroke-width:5;stroke-linecap:round"/>
<line x1="894" y1="745" x2="828.95" y2="679.95" style="stroke:#ffee58;stroke-width:5;stroke-linecap:round"/>
<line x1="894" y1="745" x2="848.0" y2="665.33" style="stroke:#ffee58;stroke-width:5;stroke-linecap:round"/>
<line x1="894" y1="745" x2="870.19" y2="656.13" style="stroke:#ffee58;stroke-width:5;stroke-linecap:round"/>
<line x1="894" y1="745" x2="894.0" y2="653.0" style="stroke:#ffee58;stroke-width:5;stroke-linecap:round"/>
<line x1="894" y1="745" x2="917.81" y2="656.13" style="stroke:#ffee58;stroke-width:5;stroke-linecap:round"/>
<line x1="894" y1="745" x2="940.0" y2="665.33" style="stroke:#ffee58;stroke-width:5;stroke-linecap:round"/>
<line x1="894" y1="745" x2="959.05" y2="679.95" style="stroke:#ffee58;stroke-width:5;stroke-linecap:round"/>
<line x1="894" y1="745" x2="973.67" y2="699.0" style="stroke:#ffee58;stroke-width:5;stroke-linecap:round"/>
<line x1="894" y1="745" x2="982.87" y2="721.19" style="stroke:#ffee58;stroke-width:5;stroke-linecap:round"/>
</g>
<g>
<line x1="510" y1="344" x2="551.0" y2="344.0" style="stroke:#ffee58;stroke-width:3;stroke-linecap:round"/>
<line x1="510" y1="344" x2="549.6" y2="354.61" style="stroke:#ffee58;stroke-width:3;stroke-linecap:round"/>
<line x1="510" y1="344" x2="545.51" y2="364.5" style="stroke:#ffee58;stroke-width:3;stroke-linecap:round"/>
<line x1="510" y1="344" x2="538.99" y2="372.99" style="stroke:#ffee58;stroke-width:3;stroke-linecap:round"/>
<line x1="510" y1="344" x2="530.5" y2="379.51" style="stroke:#ffee58;stroke-width:3;stroke-linecap:round"/>
<line x1="510" y1="344" x2="520.61" y2="383.6" style="stroke:#ffee58;stroke-width:3;stroke-linecap:round"/>
<line x1="510" y1="344" x2="510.0" y2="385.0" style="stroke:#ffee58;stroke-width:3;stroke-linecap:round"/>
<line x1="510" y1="344" x2="499.39" y2="383.6" style="stroke:#ffee58;stroke-width:3;stroke-linecap:round"/>
<line x1="510" y1="344" x2="489.5" y2="379.51" style="stroke:#ffee58;stroke-width:3;stroke-linecap:round"/>
<line x1="510" y1="344" x2="481.01" y2="372.99" style="stroke:#ffee58;stroke-width:3;stroke-linecap:round"/>
<line x1="510" y1="344" x2="474.49" y2="364.5" style="stroke:#ffee58;stroke-width:3;stroke-linecap:round"/>
<line x1="510" y1="344" x2="470.4" y2="354.61" style="stroke:#ffee58;stroke-width:3;stroke-linecap:round"/>
<line x1="510" y1="344" x2="469.0" y2="344.0" style="stroke:#ffee58;stroke-width:3;stroke-linecap:round"/>
<line x1="510" y1="344" x2="470.4" y2="333.39" style="stroke:#ffee58;stroke-width:3;stroke-linecap:round"/>
<line x1="510" y1="344" x2="474.49" y2="323.5" style="stroke:#ffee58;stroke-width:3;stroke-linecap:round"/>
<line x1="510" y1="344" x2="481.01" y2="315.01" style="stroke:#ffee58;stroke-width:3;stroke-linecap:round"/>
<line x1="510" y1="344" x2="489.5" y2="308.49" style="stroke:#ffee58;stroke-width:3;stroke-linecap:round"/>
<line x1="510" y1="344" x2="499.39" y2="304.4" style="stroke:#ffee58;stroke-width:3;stroke-linecap:round"/>
<line x1="510" y1="344" x2="510.0" y2="303.0" style="stroke:#ffee58;stroke-width:3;stroke-linecap:round"/>
<line x1="510" y1="344" x2="520.61" y2="304.4" style="stroke:#ffee58;stroke-width:3;stroke-linecap:round"/>
<line x1="510" y1="344" x2="530.5" y2="308.49" style="stroke:#ffee58;stroke-width:3;stroke-linecap:round"/>
<line x1="510" y1="344" x2="538.99" y2="315.01" style="stroke:#ffee58;stroke-width:3;stroke-linecap:round"/>
<line x1="510" y1="344" x2="545.51" y2="323.5" style="stroke:#ffee58;stroke-width:3;stroke-linecap:round"/>
<line x1="510" y1="344" x2="549.6" y2="333.39" style="stroke:#ffee58;stroke-width:3;stroke-linecap:round"/>
</g>
<g>
<line x1="188" y1="892" x2="368.0" y2="892.0" style="stroke:#ffee58;stroke-width:3;stroke-linecap:round"/>
<line x1="188" y1="892" x2="361.87" y2="938.59" style="stroke:#ffee58;stroke-width:3;stroke-linecap:round"/>
<line x1="188" y1="892" x2="343.88" y2="982.0" style="stroke:#ffee58;stroke-width:3;stroke-linecap:round"/>
<line x1="188" y1="892" x2="315.28" y2="1019.28" style="stroke:#ffee58;stroke-width:3;stroke-linecap:round"/>
<line x1="188" y1="892" x2="278.0" y2="1047.88" style="stroke:#ffee58;stroke-width:3;stroke-linecap:round"/>
<line x1="188" y1="892" x2="234.59" y2="1065.87" style="stroke:#ffee58;stroke-width:3;stroke-linecap:round"/>
<line x1="188" y1="892" x2="188.0" y2="1072.0" style="stroke:#ffee58;stroke-width:3;stroke-linecap:round"/>
<line x1="188" y1="892" x2="141.41" y2="1065.87" style="stroke:#ffee58;stroke-width:3;stroke-linecap:round"/>
<line x1="188" y1="892" x2="98.0" y2="1047.88" style="stroke:#ffee58;stroke-width:3;stroke-linecap:round"/>
<line x1="188" y1="892" x2="60.72" y2="1019.28" style="stroke:#ffee58;stroke-width:3;stroke-linecap:round"/>
<line x1="188" y1="892" x2="32.120000000000005" y2="982.0" style="stroke:#ffee58;stroke-width:3;stroke-linecap:round"/>
<line x1="188" y1="892" x2="14.129999999999995" y2="938.59" style="stroke:#ffee58;stroke-width:3;stroke-linecap:round"/>
<line x1="188" y1="892" x2="8.0" y2="892.0" style="stroke:#ffee58;stroke-width:3;stroke-linecap:round"/>
<line x1="188" y1="892" x2="14.129999999999995" y2="845.41" style="stroke:#ffee58;stroke-width:3;stroke-linecap:round"/>
<line x1="188" y1="892" x2="32.120000000000005" y2="802.0" style="stroke:#ffee58;stroke-width:3;stroke-linecap:round"/>
<line x1="188" y1="892" x2="60.72" y2="764.72" style="stroke:#ffee58;stroke-width:3;stroke-linecap:round"/>
<line x1="188" y1="892" x2="98.0" y2="736.12" style="stroke:#ffee58;stroke-width:3;stroke-linecap:round"/>
<line x1="188" y1="892" x2="141.41" y2="718.13" style="stroke:#ffee58;stroke-width:3;stroke-linecap:round"/>
<line x1="188" y1="892" x2="188.0" y2="712.0" style="stroke:#ffee58;stroke-width:3;stroke-linecap:round"/>
<line x1="188" y1="892" x2="234.59" y2="718.13" style="stroke:#ffee58;stroke-width:3;stroke-linecap:round"/>
<line x1="188" y1="892" x2="278.0" y2="736.12" style="stroke:#ffee58;stroke-width:3;stroke-linecap:round"/>
<line x1="188" y1="892" x2="315.28" y2="764.72" style="stroke:#ffee58;stroke-width:3;stroke-linecap:round"/>
<line x1="188" y1="892" x2="343.88" y2="802.0" style="stroke:#ffee58;stroke-width:3;stroke-linecap:round"/>
<line x1="188" y1="892" x2="361.87" y2="845.41" style="stroke:#ffee58;stroke-width:3;stroke-linecap:round"/>
</g>
<g>
<line x1="318" y1="177" x2="469.0" y2="177.0" style="stroke:#ffee58;stroke-width:4;stroke-linecap:round"/>
<line x1="318" y1="177" x2="463.85" y2="216.07999999999998" style="stroke:#ffee58;stroke-width:4;stroke-linecap:round"/>
<line x1="318" y1="177" x2="448.77" y2="252.5" style="stroke:#ffee58;stroke-width:4;stroke-linecap:round"/>
<line x1="318" y1="177" x2="424.77" y2="283.77" style="stroke:#ffee58;stroke-width:4;stroke-linecap:round"/>
<line x1="318" y1="177" x2="393.5" y2="307.77" style="stroke:#ffee58;stroke-width:4;stroke-linecap:round"/>
<line x1="318" y1="177" x2="357.08" y2="322.85" style="stroke:#ffee58;stroke-width:4;stroke-linecap:round"/>
<line x1="318" y1="177" x2="318.0" y2="328.0" style="stroke:#ffee58;stroke-width:4;stroke-linecap:round"/>
<line x1="318" y1="177" x2="278.92" y2="322.85" style="stroke:#ffee58;stroke-width:4;stroke-linecap:round"/>
<line x1="318" y1="177" x2="242.5" y2="307.77" style="stroke:#ffee58;stroke-width:4;stroke-linecap:round"/>
<line x1="318" y1="177" x2="211.23000000000002" y2="283.77" style="stroke:#ffee58;stroke-width:4;stroke-linecap:round"/>
<line x1="318" y1="177" x2="187.23" y2="252.5" style="stroke:#ffee58;stroke-width:4;stroke-linecap:round"/>
<line x1="318" y1="177" x2="172.15" y2="216.07999999999998" style="stroke:#ffee58;stroke-width:4;stroke-linecap:round"/>
<line x1="318" y1="177" x2="167.0" y2="177.0" style="stroke:#ffee58;stroke-width:4;stroke-linecap:round"/>
<line x1="318" y1="177" x2="172.15" y2="137.92000000000002" style="stroke:#ffee58;stroke-width:4;stroke-linecap:round"/>
<line x1="318" y1="177" x2="187.23" y2="101.5" style="stroke:#ffee58;stroke-width:4;stroke-linecap:round"/>
<line x1="318" y1="177" x2="211.23000000000002" y2="70.23" style="stroke:#ffee58;stroke-width:4;stroke-linecap:round"/>
<line x1="318" y1="177" x2="242.5" y2="46.22999999999999" style="stroke:#ffee58;stroke-width:4;stroke-linecap:round"/>
<line x1="318" y1="177" x2="278.92" y2="31.150000000000006" style="stroke:#ffee58;stroke-width:4;stroke-linecap:round"/>
<line x1="318" y1="177" x2="318.0" y2="26.0" style="stroke:#ffee58;stroke-width:4;stroke-linecap:round"/>
<line x1="318" y1="177" x2="357.08" y2="31.150000000000006" style="stroke:#ffee58;stroke-width:4;stroke-linecap:round"/>
<line x1="318" y1="177" x2="393.5" y2="46.22999999999999" style="stroke:#ffee58;stroke-width:4;stroke-linecap:round"/>
<line x1="318" y1="177" x2="424.77" y2="70.23" style="stroke:#ffee58;stroke-width:4;stroke-linecap:round"/>
<line x1="318" y1="177" x2="448.77" y2="101.5" style="stroke:#ffee58;stroke-width:4;stroke-linecap:round"/>
<line x1="318" y1="177" x2="463.85" y2="137.92000000000002" style="stroke:#ffee58;stroke-width:4;stroke-linecap:round"/>
</g>
<g>
<line x1="640" y1="325" x2="832.0" y2="325.0" style="stroke:#ffee58;stroke-width:3;stroke-linecap:round"/>
<line x1="640" y1="325" x2="825.46" y2="374.69" style="stroke:#ffee58;stroke-width:3;stroke-linecap:round"/>
<line x1="640" y1="325" x2="806.28" y2="421.0" style="stroke:#ffee58;stroke-width:3;stroke-linecap:round"/>
<line x1="640" y1="325" x2="775.76" y2="460.76" style="stroke:#ffee58;stroke-width:3;stroke-linecap:round"/>
<line x1="640" y1="325" x2="736.0" y2="491.28" style="stroke:#ffee58;stroke-width:3;stroke-linecap:round"/>
<line x1="640" y1="325" x2="689.69" y2="510.46000000000004" style="stroke:#ffee58;stroke-width:3;stroke-linecap:round"/>
<line x1="640" y1="325" x2="640.0" y2="517.0" style="stroke:#ffee58;stroke-width:3;stroke-linecap:round"/>
<line x1="640" y1="325" x2="590.31" y2="510.46000000000004" style="stroke:#ffee58;stroke-width:3;stroke-linecap:round"/>
<line x1="640" y1="325" x2="544.0" y2="491.28" style="stroke:#ffee58;stroke-width:3;stroke-linecap:round"/>
<line x1="640" y1="325" x2="504.24" y2="460.76" style="stroke:#ffee58;stroke-width:3;stroke-linecap:round"/>
<line x1="640" y1="325" x2="473.72" y2="421.0" style="stroke:#ffee58;stroke-width:3;stroke-linecap:round"/>
<line x1="640" y1="325" x2="454.53999999999996" y2="374.69" style="stroke:#ffee58;stroke-width:3;stroke-linecap:round"/>
<line x1="640" y1="325" x2="448.0" y2="325.0" style="stroke:#ffee58;stroke-width:3;stroke-linecap:round"/>
<line x1="640" y1="325" x2="454.53999999999996" y2="275.31" style="stroke:#ffee58;stroke-width:3;stroke-linecap:round"/>
<line x1="640" y1="325" x2="473.72" y2="229.0" style="stroke:#ffee58;stroke-width:3;stroke-linecap:round"/>
<line x1="640" y1="325" x2="504.24" y2="189.24" style="stroke:#ffee58;stroke-width:3;stroke-linecap:round"/>
<line x1="640" y1="325" x2="544.0" y2="158.72" style="stroke:#ffee58;stroke-width:3;stroke-linecap:round"/>
<line x1="640" y1="325" x2="590.31" y2="139.54" style="stroke:#ffee58;stroke-width:3;stroke-linecap:round"/>
<line x1="640" y1="325" x2="640.0" y2="133.0" style="stroke:#ffee58;stroke-width:3;stroke-linecap:round"/>
<line x1="640" y1="325" x2="689.69" y2="139.54" style="stroke:#ffee58;stroke-width:3;stroke-linecap:round"/>
<line x1="640" y1="325" x2="736.0" y2="158.72" style="stroke:#ffee58;stroke-width:3;stroke-linecap:round"/>
<line x1="640" y1="325" x2="775.76" y2="189.24" style="stroke:#ffee58;stroke-width:3;stroke-linecap:round"/>
<line x1="640" y1="325" x2="806.28" y2="229.0" style="stroke:#ffee58;stroke-width:3;stroke-linecap:round"/>
<line x1="640" y1="325" x2="825.46" y2="275.31" style="stroke:#ffee58;stroke-width:3;stroke-linecap:round"/>
</g>
<g>
<line x1="866" y1="712" x2="982.0" y2="712.0" style="stroke:#ffee58;stroke-width:8;stroke-linecap:round"/>
<line x1="866" y1="712" x2="978.05" y2="742.02" style="stroke:#ffee58;stroke-width:8;stroke-linecap:round"/>
<line x1="866" y1="712" x2="966.46" y2="770.0" style="stroke:#ffee58;stroke-width:8;stroke-linecap:round"/>
<line x1="866" y1="712" x2="948.02" y2="794.02" style="stroke:#ffee58;stroke-width:8;stroke-linecap:round"/>
<line x1="866" y1="712" x2="924.0" y2="812.46" style="stroke:#ffee58;stroke-width:8;stroke-linecap:round"/>
<line x1="866" y1="712" x2="896.02" y2="824.05" style="stroke:#ffee58;stroke-width:8;stroke-linecap:round"/>
<line x1="866" y1="712" x2="866.0" y2="828.0" style="stroke:#ffee58;stroke-width:8;stroke-linecap:round"/>
<line x1="866" y1="712" x2="835.98" y2="824.05" style="stroke:#ffee58;stroke-width:8;stroke-linecap:round"/>
<line x1="866" y1="712" x2="808.0" y2="812.46" style="stroke:#ffee58;stroke-width:8;stroke-linecap:round"/>
<line x1="866" y1="712" x2="783.98" y2="794.02" style="stroke:#ffee58;stroke-width:8;stroke-linecap:round"/>
<line x1="866" y1="712" x2="765.54" y2="770.0" style="stroke:#ffee58;stroke-width:8;stroke-linecap:round"/>
<line x1="866" y1="712" x2="753.95" y2="742.02" style="stroke:#ffee58;stroke-width:8;stroke-linecap:round"/>
<line x1="866" y1="712" x2="750.0" y2="712.0" style="stroke:#ffee58;stroke-width:8;stroke-linecap:round"/>
<line x1="866" y1="712" x2="753.95" y2="681.98" style="stroke:#ffee58;stroke-width:8;stroke-linecap:round"/>
<line x1="866" y1="712" x2="765.54" y2="654.0" style="stroke:#ffee58;stroke-width:8;stroke-linecap:round"/>
<line x1="866" y1="712" x2="783.98" y2="629.98" style="stroke:#ffee58;stroke-width:8;stroke-linecap:round"/>
<line x1="866" y1="712" x2="808.0" y2="611.54" style="stroke:#ffee58;stroke-width:8;stroke-linecap:round"/>
<line x1="866" y1="712" x2="835.98" y2="599.95" style="stroke:#ffee58;stroke-width:8;stroke-linecap:round"/>
<line x1="866" y1="712" x2="866.0" y2="596.0" style="stroke:#ffee58;stroke-width:8;stroke-linecap:round"/>
<line x1="866" y1="712" x2="896.02" y2="599.95" style="stroke:#ffee58;stroke-width:8;stroke-linecap:round"/>
<line x1="866" y1="712" x2="924.0" y2="611.54" style="stroke:#ffee58;stroke-width:8;stroke-linecap:round"/>
<line x1="866" y1="712" x2="948.02" y2="629.98" style="stroke:#ffee58;stroke-width:8;stroke-linecap:round"/>
<line x1="866" y1="712" x2="966.46" y2="654.0" style="stroke:#ffee58;stroke-width:8;stroke-linecap:round"/>
<line x1="866" y1="712" x2="978.05" y2="681.98" style="stroke:#ffee58;stroke-width:8;stroke-linecap:round"/>
</g>
<g>
<line x1="532" y1="545" x2="622.0" y2="545.0" style="stroke:#ffee58;stroke-width:6;stroke-linecap:round"/>
<line x1="532" y1="545" x2="618.9300000000001" y2="568.29" style="stroke:#ffee58;stroke-width:6;stroke-linecap:round"/>
<line x1="532" y1="545" x2="609.94" y2="590.0" style="stroke:#ffee58;stroke-width:6;stroke-linecap:round"/>
<line x1="532" y1="545" x2="595.64" y2="608.64" style="stroke:#ffee58;stroke-width:6;stroke-linecap:round"/>
<line x1="532" y1="545" x2="577.0" y2="622.94" style="stroke:#ffee58;stroke-width:6;stroke-linecap:round"/>
<line x1="532" y1="545" x2="555.29" y2="631.9300000000001" style="stroke:#ffee58;stroke-width:6;stroke-linecap:round"/>
<line x1="532" y1="545" x2="532.0" y2="635.0" style="stroke:#ffee58;stroke-width:6;stroke-linecap:round"/>
<line x1="532" y1="545" x2="508.71" y2="631.9300000000001" style="stroke:#ffee58;stroke-width:6;stroke-linecap:round"/>
<line x1="532" y1="545" x2="487.0" y2="622.94" style="stroke:#ffee58;stroke-width:6;stroke-linecap:round"/>
<line x1="532" y1="545" x2="468.36" y2="608.64" style="stroke:#ffee58;stroke-width:6;stroke-linecap:round"/>
<line x1="532" y1="545" x2="454.06" y2="590.0" style="stroke:#ffee58;stroke-width:6;stroke-linecap:round"/>
<line x1="532" y1="545" x2="445.07" y2="568.29" style="stroke:#ffee58;stroke-width:6;stroke-linecap:round"/>
<line x1="532" y1="545" x2="442.0" y2="545.0" style="stroke:#ffee58;stroke-width:6;stroke-linecap:round"/>
<line x1="532" y1="545" x2="445.07" y2="521.71" style="stroke:#ffee58;stroke-width:6;stroke-linecap:round"/>
<line x1="532" y1="545" x2="454.06" y2="500.0" style="stroke:#ffee58;stroke-width:6;stroke-linecap:round"/>
<line x1="532" y1="545" x2="468.36" y2="481.36" style="stroke:#ffee58;stroke-width:6;stroke-linecap:round"/>
<line x1="532" y1="545" x2="487.0" y2="467.06" style="stroke:#ffee58;stroke-width:6;stroke-linecap:round"/>
<line x1="532" y1="545" x2="508.71" y2="458.07" style="stroke:#ffee58;stroke-width:6;stroke-linecap:round"/>
<line x1="532" y1="545" x2="532.0" y2="455.0" style="stroke:#ffee58;stroke-width:6;stroke-linecap:round"/>
<line x1="532" y1="545" x2="555.29" y2="458.07" style="stroke:#ffee58;stroke-width:6;stroke-linecap:round"/>
<line x1="532" y1="545" x2="577.0" y2="467.06" style="stroke:#ffee58;stroke-width:6;stroke-linecap:round"/>
<line x1="532" y1="545" x2="595.64" y2="481.36" style="stroke:#ffee58;stroke-width:6;stroke-linecap:round"/>
<line x1="532" y1="545" x2="609.94" y2="500.0" style="stroke:#ffee58;stroke-width:6;stroke-linecap:round"/>
<line x1="532" y1="545" x2="618.9300000000001" y2="521.71" style="stroke:#ffee58;stroke-width:6;stroke-linecap:round"/>
</g>
<g>
<line x1="826" y1="566" x2="915.0" y2="566.0" style="stroke:#ffee58;stroke-width:7;stroke-linecap:round"/>
<line x1="826" y1="566" x2="911.97" y2="589.03" style="stroke:#ffee58;stroke-width:7;stroke-linecap:round"/>
<line x1="826" y1="566" x2="903.08" y2="610.5" style="stroke:#ffee58;stroke-width:7;stroke-linecap:round"/>
<line x1="826" y1="566" x2="888.93" y2="628.93" style="stroke:#ffee58;stroke-width:7;stroke-linecap:round"/>
<line x1="826" y1="566" x2="870.5" y2="643.08" style="stroke:#ffee58;stroke-width:7;stroke-linecap:round"/>
<line x1="826" y1="566" x2="849.03" y2="651.97" style="stroke:#ffee58;stroke-width:7;stroke-linecap:round"/>
<line x1="826" y1="566" x2="826.0" y2="655.0" style="stroke:#ffee58;stroke-width:7;stroke-linecap:round"/>
<line x1="826" y1="566" x2="802.97" y2="651.97" style="stroke:#ffee58;stroke-width:7;stroke-linecap:round"/>
<line x1="826" y1="566" x2="781.5" y2="643.08" style="stroke:#ffee58;stroke-width:7;stroke-linecap:round"/>
<line x1="826" y1="566" x2="763.07" y2="628.93" style="stroke:#ffee58;stroke-width:7;stroke-linecap:round"/>
<line x1="826" y1="566" x2="748.92" y2="610.5" style="stroke:#ffee58;stroke-width:7;stroke-linecap:round"/>
<line x1="826" y1="566" x2="740.03" y2="589.03" style="stroke:#ffee58;stroke-width:7;stroke-linecap:round"/>
<line x1="826" y1="566" x2="737.0" y2="566.0" style="stroke:#ffee58;stroke-width:7;stroke-linecap:round"/>
<line x1="826" y1="566" x2="740.03" y2="542.97" style="stroke:#ffee58;stroke-width:7;stroke-linecap:round"/>
<line x1="826" y1="566" x2="748.92" y2="521.5" style="stroke:#ffee58;stroke-width:7;stroke-linecap:round"/>
<line x1="826" y1="566" x2="763.07" y2="503.07" style="stroke:#ffee58;stroke-width:7;stroke-linecap:round"/>
<line x1="826" y1="566" x2="781.5" y2="488.92" style="stroke:#ffee58;stroke-width:7;stroke-linecap:round"/>
<line x1="826" y1="566" x2="802.97" y2="480.03" style="stroke:#ffee58;stroke-width:7;stroke-linecap:round"/>
<line x1="826" y1="566" x2="826.0" y2="477.0" style="stroke:#ffee58;stroke-width:7;stroke-linecap:round"/>
<line x1="826" y1="566" x2="849.03" y2="480.03" style="stroke:#ffee58;stroke-width:7;stroke-linecap:round"/>
<line x1="826" y1="566" x2="870.5" y2="488.92" style="stroke:#ffee58;stroke-width:7;stroke-linecap:round"/>
<line x1="826" y1="566" x2="888.93" y2="503.07" style="stroke:#ffee58;stroke-width:7;stroke-linecap:round"/>
<line x1="826" y1="566" x2="903.08" y2="521.5" style="stroke:#ffee58;stroke-width:7;stroke-linecap:round"/>
<line x1="826" y1="566" x2="911.97" y2="542.97" style="stroke:#ffee58;stroke-width:7;stroke-linecap:round"/>
</g>
<g>
<line x1="116" y1="86" x2="315.0" y2="86.0" style="stroke:#ffee58;stroke-width:4;stroke-linecap:round"/>
<line x1="116" y1="86" x2="308.22" y2="137.5" style="stroke:#ffee58;stroke-width:4;stroke-linecap:round"/>
<line x1="116" y1="86" x2="288.34000000000003" y2="185.5" style="stroke:#ffee58;stroke-width:4;stroke-linecap:round"/>
<line x1="116" y1="86" x2="256.71000000000004" y2="226.71" style="stroke:#ffee58;stroke-width:4;stroke-linecap:round"/>
<line x1="116" y1="86" x2="215.5" y2="258.34000000000003" style="stroke:#ffee58;stroke-width:4;stroke-linecap:round"/>
<line x1="116" y1="86" x2="167.5" y2="278.22" style="stroke:#ffee58;stroke-width:4;stroke-linecap:round"/>
<line x1="116" y1="86" x2="116.0" y2="285.0" style="stroke:#ffee58;stroke-width:4;stroke-linecap:round"/>
<line x1="116" y1="86" x2="64.5" y2="278.22" style="stroke:#ffee58;stroke-width:4;stroke-linecap:round"/>
<line x1="116" y1="86" x2="16.5" y2="258.34000000000003" style="stroke:#ffee58;stroke-width:4;stroke-linecap:round"/>
<line x1="116" y1="86" x2="-24.710000000000008" y2="226.71" style="stroke:#ffee58;stroke-width:4;stroke-linecap:round"/>
<line x1="116" y1="86" x2="-56.34" y2="185.5" style="stroke:#ffee58;stroke-width:4;stroke-linecap:round"/>
<line x1="116" y1="86" x2="-76.22" y2="137.5" style="stroke:#ffee58;stroke-width:4;stroke-linecap:round"/>
<line x1="116" y1="86" x2="-83.0" y2="86.0" style="stroke:#ffee58;stroke-width:4;stroke-linecap:round"/>
<line x1="116" y1="86" x2="-76.22" y2="34.5" style="stroke:#ffee58;stroke-width:4;stroke-linecap:round"/>
<line x1="116" y1="86" x2="-56.34" y2="-13.5" style="stroke:#ffee58;stroke-width:4;stroke-linecap:round"/>
<line x1="116" y1="86" x2="-24.710000000000008" y2="-54.71000000000001" style="stroke:#ffee58;stroke-width:4;stroke-linecap:round"/>
<line x1="116" y1="86" x2="16.5" y2="-86.34" style="stroke:#ffee58;stroke-width:4;stroke-linecap:round"/>
<line x1="116" y1="86" x2="64.5" y2="-106.22" style="stroke:#ffee58;stroke-width:4;stroke-linecap:round"/>
<line x1="116" y1="86" x2="116.0" y2="-113.0" style="stroke:#ffee58;stroke-width:4;stroke-linecap:round"/>
<line x1="116" y1="86" x2="167.5" y2="-106.22" style="stroke:#ffee58;stroke-width:4;stroke-linecap:round"/>
<line x1="116" y1="86" x2="215.5" y2="-86.34" style="stroke:#ffee58;stroke-width:4;stroke-linecap:round"/>
<line x1="116" y1="86" x2="256.71000000000004" y2="-54.71000000000001" style="stroke:#ffee58;stroke-width:4;stroke-linecap:round"/>
<line x1="116" y1="86" x2="288.34000000000003" y2="-13.5" style="stroke:#ffee58;stroke-width:4;stroke-linecap:round"/>
<line x1="116" y1="86" x2="308.22" y2="34.5" style="stroke:#ffee58;stroke-width:4;stroke-linecap:round"/>
</g>
<g>
<line x1="501" y1="237" x2="652.0" y2="237.0" style="stroke:#ffee58;stroke-width:8;stroke-linecap:round"/>
<line x1="501" y1="237" x2="646.85" y2="276.08" style="stroke:#ffee58;stroke-width:8;stroke-linecap:round"/>
<line x1="501" y1="237" x2="631.77" y2="312.5" style="stroke:#ffee58;stroke-width:8;stroke-linecap:round"/>
<line x1="501" y1="237" x2="607.77" y2="343.77" style="stroke:#ffee58;stroke-width:8;stroke-linecap:round"/>
<line x1="501" y1="237" x2="576.5" y2="367.77" style="stroke:#ffee58;stroke-width:8;stroke-linecap:round"/>
<line x1="501" y1="237" x2="540.08" y2="382.85" style="stroke:#ffee58;stroke-width:8;stroke-linecap:round"/>
<line x1="501" y1="237" x2="501.0" y2="388.0" style="stroke:#ffee58;stroke-width:8;stroke-linecap:round"/>
<line x1="501" y1="237" x2="461.92" y2="382.85" style="stroke:#ffee58;stroke-width:8;stroke-linecap:round"/>
<line x1="501" y1="237" x2="425.5" y2="367.77" style="stroke:#ffee58;stroke-width:8;stroke-linecap:round"/>
<line x1="501" y1="237" x2="394.23" y2="343.77" style="stroke:#ffee58;stroke-width:8;stroke-linecap:round"/>
<line x1="501" y1="237" x2="370.23" y2="312.5" style="stroke:#ffee58;stroke-width:8;stroke-linecap:round"/>
<line x1="501" y1="237" x2="355.15" y2="276.08" style="stroke:#ffee58;stroke-width:8;stroke-linecap:round"/>
<line x1="501" y1="237" x2="350.0" y2="237.0" style="stroke:#ffee58;stroke-width:8;stroke-linecap:round"/>
<line x1="501" y1="237" x2="355.15" y2="197.92000000000002" style="stroke:#ffee58;stroke-width:8;stroke-linecap:round"/>
<line x1="501" y1="237" x2="370.23" y2="161.5" style="stroke:#ffee58;stroke-width:8;stroke-linecap:round"/>
<line x1="501" y1="237" x2="394.23" y2="130.23000000000002" style="stroke:#ffee58;stroke-width:8;stroke-linecap:round"/>
<line x1="501" y1="237" x2="425.5" y2="106.22999999999999" style="stroke:#ffee58;stroke-width:8;stroke-linecap:round"/>
<line x1="501" y1="237" x2="461.92" y2="91.15" style="stroke:#ffee58;stroke-width:8;stroke-linecap:round"/>
<line x1="501" y1="237" x2="501.0" y2="86.0" style="stroke:#ffee58;stroke-width:8;stroke-linecap:round"/>
<line x1="501" y1="237" x2="540.08" y2="91.15" style="stroke:#ffee58;stroke-width:8;stroke-linecap:round"/>
<line x1="501" y1="237" x2="576.5" y2="106.22999999999999" style="stroke:#ffee58;stroke-width:8;stroke-linecap:round"/>
<line x1="501" y1="237" x2="607.77" y2="130.23000000000002" style="stroke:#ffee58;stroke-width:8;stroke-linecap:round"/>
<line x1="501" y1="237" x2="631.77" y2="161.5" style="stroke:#ffee58;stroke-width:8;stroke-linecap:round"/>
<line x1="501" y1="237" x2="646.85" y2="197.92000000000002" style="stroke:#ffee58;stroke-width:8;stroke-linecap:round"/>
</g>
<g>
<line x1="501" y1="38" x2="542.0" y2="38.0" style="stroke:#ffee58;stroke-width:2;stroke-linecap:round"/>
<line x1="501" y1="38" x2="540.6" y2="48.61" style="stroke:#ffee58;stroke-width:2;stroke-linecap:round"/>
<line x1="501" y1="38" x2="536.51" y2="58.5" style="stroke:#ffee58;stroke-width:2;stroke-linecap:round"/>
<line x1="501" y1="38" x2="529.99" y2="66.99" style="stroke:#ffee58;stroke-width:2;stroke-linecap:round"/>
<line x1="501" y1="38" x2="521.5" y2="73.50999999999999" style="stroke:#ffee58;stroke-width:2;stroke-linecap:round"/>
<line x1="501" y1="38" x2="511.61" y2="77.6" style="stroke:#ffee58;stroke-width:2;stroke-linecap:round"/>
<line x1="501" y1="38" x2="501.0" y2="79.0" style="stroke:#ffee58;stroke-width:2;stroke-linecap:round"/>
<line x1="501" y1="38" x2="490.39" y2="77.6" style="stroke:#ffee58;stroke-width:2;stroke-linecap:round"/>
<line x1="501" y1="38" x2="480.5" y2="73.50999999999999" style="stroke:#ffee58;stroke-width:2;stroke-linecap:round"/>
<line x1="501" y1="38" x2="472.01" y2="66.99" style="stroke:#ffee58;stroke-width:2;stroke-linecap:round"/>
<line x1="501" y1="38" x2="465.49" y2="58.5" style="stroke:#ffee58;stroke-width:2;stroke-linecap:round"/>
<line x1="501" y1="38" x2="461.4" y2="48.61" style="stroke:#ffee58;stroke-width:2;stroke-linecap:round"/>
<line x1="501" y1="38" x2="460.0" y2="38.0" style="stroke:#ffee58;stroke-width:2;stroke-linecap:round"/>
<line x1="501" y1="38" x2="461.4" y2="27.39" style="stroke:#ffee58;stroke-width:2;stroke-linecap:round"/>
<line x1="501" y1="38" x2="465.49" y2="17.5" style="stroke:#ffee58;stroke-width:2;stroke-linecap:round"/>
<line x1="501" y1="38" x2="472.01" y2="9.010000000000002" style="stroke:#ffee58;stroke-width:2;stroke-linecap:round"/>
<line x1="501" y1="38" x2="480.5" y2="2.490000000000002" style="stroke:#ffee58;stroke-width:2;stroke-linecap:round"/>
<line x1="501" y1="38" x2="490.39" y2="-1.6000000000000014" style="stroke:#ffee58;stroke-width:2;stroke-linecap:round"/>
<line x1="501" y1="38" x2="501.0" y2="-3.0" style="stroke:#ffee58;stroke-width:2;stroke-linecap:round"/>
<line x1="501" y1="38" x2="511.61" y2="-1.6000000000000014" style="stroke:#ffee58;stroke-width:2;stroke-linecap:round"/>
<line x1="501" y1="38" x2="521.5" y2="2.490000000000002" style="stroke:#ffee58;stroke-width:2;stroke-linecap:round"/>
<line x1="501" y1="38" x2="529.99" y2="9.010000000000002" style="stroke:#ffee58;stroke-width:2;stroke-linecap:round"/>
<line x1="501" y1="38" x2="536.51" y2="17.5" style="stroke:#ffee58;stroke-width:2;stroke-linecap:round"/>
<line x1="501" y1="38" x2="540.6" y2="27.39" style="stroke:#ffee58;stroke-width:2;stroke-linecap:round"/>
</g>
</svg>