<svg xmlns="http://www.w3.org/2000/svg"
            xmlns:xlink="http://www.w3.org/1999/xlink"
            version="1.1" 
            baseProfile="full"
            width="900" height="900"
            viewBox="0 0 900 900">
            <title>TCI Generativ Art Generator 2 Rectangles, Triangle, Circle</title>
            <desc>Generiert mit Python</desc>
            <autor>Thomas Cigolla</autor>
            <date>2022-06-21T15:43:46.083076</date>
            <license>CC BY-NC 4.0</license>


            <rect x="0" y="0" width="900" height="900" fill="none" />

            <rect x="0" y="0" width="100" height="100" fill="#212529" stroke="none" />
<polygon points="0,0 100,0 0,100" fill="#f3e5f5" transform="translate(0,0)"/>
<circle cx="50.0" cy="50.0" r="42" fill="#e1bee7"/>
<rect x="100" y="0" width="100" height="100" fill="#f8f9fa" stroke="none" />
<polygon points="100,0 100,100 0,100" fill="#6a1b9a" transform="translate(100,0)"/>
<circle cx="150.0" cy="50.0" r="20" fill="#ba68c8"/>
<rect x="200" y="0" width="100" height="100" fill="#495057" stroke="none" />
<polygon points="100,0 100,100 0,100" fill="#9c27b0" transform="translate(200,0)"/>
<circle cx="250.0" cy="50.0" r="43" fill="#4a148c"/>
<rect x="300" y="0" width="100" height="100" fill="#343a40" stroke="none" />
<polygon points="100,0 100,100 0,100" fill="#9c27b0" transform="translate(300,0)"/>
<circle cx="350.0" cy="50.0" r="25" fill="#6a1b9a"/>
<rect x="400" y="0" width="100" height="100" fill="#495057" stroke="none" />
<polygon points="100,0 100,100 0,100" fill="#6a1b9a" transform="translate(400,0)"/>
<circle cx="450.0" cy="50.0" r="9" fill="#ab47bc"/>
<rect x="500" y="0" width="100" height="100" fill="#495057" stroke="none" />
<polygon points="0,0 100,0 0,100" fill="#f3e5f5" transform="translate(500,0)"/>
<circle cx="550.0" cy="50.0" r="30" fill="#f3e5f5"/>
<rect x="600" y="0" width="100" height="100" fill="#343a40" stroke="none" />
<polygon points="0,0 100,0 0,100" fill="#9c27b0" transform="translate(600,0)"/>
<circle cx="650.0" cy="50.0" r="38" fill="#9c27b0"/>
<rect x="700" y="0" width="100" height="100" fill="#ced4da" stroke="none" />
<polygon points="0,0 100,0 0,100" fill="#8e24aa" transform="translate(700,0)"/>
<circle cx="750.0" cy="50.0" r="12" fill="#7b1fa2"/>
<rect x="800" y="0" width="100" height="100" fill="#495057" stroke="none" />
<polygon points="0,0 100,0 0,100" fill="#9c27b0" transform="translate(800,0)"/>
<circle cx="850.0" cy="50.0" r="39" fill="#f3e5f5"/>
<rect x="0" y="100" width="100" height="100" fill="#343a40" stroke="none" />
<polygon points="0,0 100,0 0,100" fill="#7b1fa2" transform="translate(0,100)"/>
<circle cx="50.0" cy="150.0" r="20" fill="#9c27b0"/>
<rect x="100" y="100" width="100" height="100" fill="#212529" stroke="none" />
<polygon points="0,0 100,0 0,100" fill="#ba68c8" transform="translate(100,100)"/>
<circle cx="150.0" cy="150.0" r="10" fill="#e1bee7"/>
<rect x="200" y="100" width="100" height="100" fill="#ced4da" stroke="none" />
<polygon points="0,0 100,0 0,100" fill="#ab47bc" transform="translate(200,100)"/>
<circle cx="250.0" cy="150.0" r="32" fill="#9c27b0"/>
<rect x="300" y="100" width="100" height="100" fill="#ced4da" stroke="none" />
<polygon points="0,0 100,0 0,100" fill="#e1bee7" transform="translate(300,100)"/>
<circle cx="350.0" cy="150.0" r="31" fill="#f3e5f5"/>
<rect x="400" y="100" width="100" height="100" fill="#ced4da" stroke="none" />
<polygon points="100,0 100,100 0,100" fill="#ce93d8" transform="translate(400,100)"/>
<circle cx="450.0" cy="150.0" r="36" fill="#f3e5f5"/>
<rect x="500" y="100" width="100" height="100" fill="#ced4da" stroke="none" />
<polygon points="100,0 100,100 0,100" fill="#e1bee7" transform="translate(500,100)"/>
<circle cx="550.0" cy="150.0" r="44" fill="#ba68c8"/>
<rect x="600" y="100" width="100" height="100" fill="#343a40" stroke="none" />
<polygon points="100,0 100,100 0,100" fill="#ba68c8" transform="translate(600,100)"/>
<circle cx="650.0" cy="150.0" r="20" fill="#8e24aa"/>
<rect x="700" y="100" width="100" height="100" fill="#212529" stroke="none" />
<polygon points="100,0 100,100 0,100" fill="#4a148c" transform="translate(700,100)"/>
<circle cx="750.0" cy="150.0" r="40" fill="#7b1fa2"/>
<rect x="800" y="100" width="100" height="100" fill="#e9ecef" stroke="none" />
<polygon points="100,0 100,100 0,100" fill="#ab47bc" transform="translate(800,100)"/>
<circle cx="850.0" cy="150.0" r="34" fill="#4a148c"/>
<rect x="0" y="200" width="100" height="100" fill="#212529" stroke="none" />
<polygon points="100,0 100,100 0,100" fill="#4a148c" transform="translate(0,200)"/>
<circle cx="50.0" cy="250.0" r="37" fill="#ce93d8"/>
<rect x="100" y="200" width="100" height="100" fill="#212529" stroke="none" />
<polygon points="0,0 100,0 0,100" fill="#ab47bc" transform="translate(100,200)"/>
<circle cx="150.0" cy="250.0" r="13" fill="#ab47bc"/>
<rect x="200" y="200" width="100" height="100" fill="#343a40" stroke="none" />
<polygon points="100,0 100,100 0,100" fill="#f3e5f5" transform="translate(200,200)"/>
<circle cx="250.0" cy="250.0" r="18" fill="#f3e5f5"/>
<rect x="300" y="200" width="100" height="100" fill="#adb5bd" stroke="none" />
<polygon points="0,0 100,0 0,100" fill="#ba68c8" transform="translate(300,200)"/>
<circle cx="350.0" cy="250.0" r="44" fill="#ce93d8"/>
<rect x="400" y="200" width="100" height="100" fill="#e9ecef" stroke="none" />
<polygon points="0,0 100,0 0,100" fill="#ba68c8" transform="translate(400,200)"/>
<circle cx="450.0" cy="250.0" r="12" fill="#e1bee7"/>
<rect x="500" y="200" width="100" height="100" fill="#e9ecef" stroke="none" />
<polygon points="100,0 100,100 0,100" fill="#ce93d8" transform="translate(500,200)"/>
<circle cx="550.0" cy="250.0" r="31" fill="#9c27b0"/>
<rect x="600" y="200" width="100" height="100" fill="#212529" stroke="none" />
<polygon points="100,0 100,100 0,100" fill="#9c27b0" transform="translate(600,200)"/>
<circle cx="650.0" cy="250.0" r="16" fill="#f3e5f5"/>
<rect x="700" y="200" width="100" height="100" fill="#343a40" stroke="none" />
<polygon points="0,0 100,0 0,100" fill="#7b1fa2" transform="translate(700,200)"/>
<circle cx="750.0" cy="250.0" r="9" fill="#6a1b9a"/>
<rect x="800" y="200" width="100" height="100" fill="#f8f9fa" stroke="none" />
<polygon points="0,0 100,0 0,100" fill="#6a1b9a" transform="translate(800,200)"/>
<circle cx="850.0" cy="250.0" r="35" fill="#ab47bc"/>
<rect x="0" y="300" width="100" height="100" fill="#dee2e6" stroke="none" />
<polygon points="100,0 100,100 0,100" fill="#e1bee7" transform="translate(0,300)"/>
<circle cx="50.0" cy="350.0" r="18" fill="#ba68c8"/>
<rect x="100" y="300" width="100" height="100" fill="#f8f9fa" stroke="none" />
<polygon points="100,0 100,100 0,100" fill="#4a148c" transform="translate(100,300)"/>
<circle cx="150.0" cy="350.0" r="5" fill="#9c27b0"/>
<rect x="200" y="300" width="100" height="100" fill="#e9ecef" stroke="none" />
<polygon points="0,0 100,0 0,100" fill="#ab47bc" transform="translate(200,300)"/>
<circle cx="250.0" cy="350.0" r="23" fill="#f3e5f5"/>
<rect x="300" y="300" width="100" height="100" fill="#ced4da" stroke="none" />
<polygon points="100,0 100,100 0,100" fill="#ba68c8" transform="translate(300,300)"/>
<circle cx="350.0" cy="350.0" r="22" fill="#8e24aa"/>
<rect x="400" y="300" width="100" height="100" fill="#212529" stroke="none" />
<polygon points="100,0 100,100 0,100" fill="#6a1b9a" transform="translate(400,300)"/>
<circle cx="450.0" cy="350.0" r="7" fill="#ba68c8"/>
<rect x="500" y="300" width="100" height="100" fill="#343a40" stroke="none" />
<polygon points="0,0 100,0 0,100" fill="#8e24aa" transform="translate(500,300)"/>
<circle cx="550.0" cy="350.0" r="19" fill="#ba68c8"/>
<rect x="600" y="300" width="100" height="100" fill="#495057" stroke="none" />
<polygon points="100,0 100,100 0,100" fill="#9c27b0" transform="translate(600,300)"/>
<circle cx="650.0" cy="350.0" r="14" fill="#6a1b9a"/>
<rect x="700" y="300" width="100" height="100" fill="#e9ecef" stroke="none" />
<polygon points="0,0 100,0 0,100" fill="#7b1fa2" transform="translate(700,300)"/>
<circle cx="750.0" cy="350.0" r="21" fill="#7b1fa2"/>
<rect x="800" y="300" width="100" height="100" fill="#212529" stroke="none" />
<polygon points="0,0 100,0 0,100" fill="#9c27b0" transform="translate(800,300)"/>
<circle cx="850.0" cy="350.0" r="5" fill="#4a148c"/>
<rect x="0" y="400" width="100" height="100" fill="#ced4da" stroke="none" />
<polygon points="0,0 100,0 0,100" fill="#ce93d8" transform="translate(0,400)"/>
<circle cx="50.0" cy="450.0" r="17" fill="#4a148c"/>
<rect x="100" y="400" width="100" height="100" fill="#495057" stroke="none" />
<polygon points="100,0 100,100 0,100" fill="#ce93d8" transform="translate(100,400)"/>
<circle cx="150.0" cy="450.0" r="20" fill="#9c27b0"/>
<rect x="200" y="400" width="100" height="100" fill="#e9ecef" stroke="none" />
<polygon points="0,0 100,0 0,100" fill="#9c27b0" transform="translate(200,400)"/>
<circle cx="250.0" cy="450.0" r="6" fill="#ce93d8"/>
<rect x="300" y="400" width="100" height="100" fill="#e9ecef" stroke="none" />
<polygon points="0,0 100,0 0,100" fill="#ab47bc" transform="translate(300,400)"/>
<circle cx="350.0" cy="450.0" r="6" fill="#4a148c"/>
<rect x="400" y="400" width="100" height="100" fill="#adb5bd" stroke="none" />
<polygon points="100,0 100,100 0,100" fill="#f3e5f5" transform="translate(400,400)"/>
<circle cx="450.0" cy="450.0" r="28" fill="#ce93d8"/>
<rect x="500" y="400" width="100" height="100" fill="#343a40" stroke="none" />
<polygon points="100,0 100,100 0,100" fill="#7b1fa2" transform="translate(500,400)"/>
<circle cx="550.0" cy="450.0" r="6" fill="#4a148c"/>
<rect x="600" y="400" width="100" height="100" fill="#495057" stroke="none" />
<polygon points="0,0 100,0 0,100" fill="#ba68c8" transform="translate(600,400)"/>
<circle cx="650.0" cy="450.0" r="15" fill="#f3e5f5"/>
<rect x="700" y="400" width="100" height="100" fill="#dee2e6" stroke="none" />
<polygon points="100,0 100,100 0,100" fill="#7b1fa2" transform="translate(700,400)"/>
<circle cx="750.0" cy="450.0" r="29" fill="#6a1b9a"/>
<rect x="800" y="400" width="100" height="100" fill="#212529" stroke="none" />
<polygon points="100,0 100,100 0,100" fill="#e1bee7" transform="translate(800,400)"/>
<circle cx="850.0" cy="450.0" r="33" fill="#ce93d8"/>
<rect x="0" y="500" width="100" height="100" fill="#ced4da" stroke="none" />
<polygon points="100,0 100,100 0,100" fill="#7b1fa2" transform="translate(0,500)"/>
<circle cx="50.0" cy="550.0" r="27" fill="#ba68c8"/>
<rect x="100" y="500" width="100" height="100" fill="#ced4da" stroke="none" />
<polygon points="100,0 100,100 0,100" fill="#e1bee7" transform="translate(100,500)"/>
<circle cx="150.0" cy="550.0" r="7" fill="#ce93d8"/>
<rect x="200" y="500" width="100" height="100" fill="#e9ecef" stroke="none" />
<polygon points="100,0 100,100 0,100" fill="#e1bee7" transform="translate(200,500)"/>
<circle cx="250.0" cy="550.0" r="11" fill="#9c27b0"/>
<rect x="300" y="500" width="100" height="100" fill="#f8f9fa" stroke="none" />
<polygon points="100,0 100,100 0,100" fill="#ce93d8" transform="translate(300,500)"/>
<circle cx="350.0" cy="550.0" r="14" fill="#ba68c8"/>
<rect x="400" y="500" width="100" height="100" fill="#f8f9fa" stroke="none" />
<polygon points="0,0 100,0 0,100" fill="#ce93d8" transform="translate(400,500)"/>
<circle cx="450.0" cy="550.0" r="6" fill="#9c27b0"/>
<rect x="500" y="500" width="100" height="100" fill="#ced4da" stroke="none" />
<polygon points="0,0 100,0 0,100" fill="#8e24aa" transform="translate(500,500)"/>
<circle cx="550.0" cy="550.0" r="11" fill="#7b1fa2"/>
<rect x="600" y="500" width="100" height="100" fill="#ced4da" stroke="none" />
<polygon points="0,0 100,0 0,100" fill="#4a148c" transform="translate(600,500)"/>
<circle cx="650.0" cy="550.0" r="40" fill="#8e24aa"/>
<rect x="700" y="500" width="100" height="100" fill="#343a40" stroke="none" />
<polygon points="100,0 100,100 0,100" fill="#ce93d8" transform="translate(700,500)"/>
<circle cx="750.0" cy="550.0" r="13" fill="#6a1b9a"/>
<rect x="800" y="500" width="100" height="100" fill="#6c757d" stroke="none" />
<polygon points="100,0 100,100 0,100" fill="#6a1b9a" transform="translate(800,500)"/>
<circle cx="850.0" cy="550.0" r="33" fill="#8e24aa"/>
<rect x="0" y="600" width="100" height="100" fill="#ced4da" stroke="none" />
<polygon points="100,0 100,100 0,100" fill="#ce93d8" transform="translate(0,600)"/>
<circle cx="50.0" cy="650.0" r="16" fill="#8e24aa"/>
<rect x="100" y="600" width="100" height="100" fill="#f8f9fa" stroke="none" />
<polygon points="0,0 100,0 0,100" fill="#9c27b0" transform="translate(100,600)"/>
<circle cx="150.0" cy="650.0" r="8" fill="#9c27b0"/>
<rect x="200" y="600" width="100" height="100" fill="#adb5bd" stroke="none" />
<polygon points="100,0 100,100 0,100" fill="#ba68c8" transform="translate(200,600)"/>
<circle cx="250.0" cy="650.0" r="37" fill="#ab47bc"/>
<rect x="300" y="600" width="100" height="100" fill="#e9ecef" stroke="none" />
<polygon points="100,0 100,100 0,100" fill="#7b1fa2" transform="translate(300,600)"/>
<circle cx="350.0" cy="650.0" r="20" fill="#8e24aa"/>
<rect x="400" y="600" width="100" height="100" fill="#dee2e6" stroke="none" />
<polygon points="100,0 100,100 0,100" fill="#4a148c" transform="translate(400,600)"/>
<circle cx="450.0" cy="650.0" r="26" fill="#ba68c8"/>
<rect x="500" y="600" width="100" height="100" fill="#343a40" stroke="none" />
<polygon points="0,0 100,0 0,100" fill="#8e24aa" transform="translate(500,600)"/>
<circle cx="550.0" cy="650.0" r="20" fill="#7b1fa2"/>
<rect x="600" y="600" width="100" height="100" fill="#6c757d" stroke="none" />
<polygon points="100,0 100,100 0,100" fill="#7b1fa2" transform="translate(600,600)"/>
<circle cx="650.0" cy="650.0" r="32" fill="#9c27b0"/>
<rect x="700" y="600" width="100" height="100" fill="#dee2e6" stroke="none" />
<polygon points="100,0 100,100 0,100" fill="#ba68c8" transform="translate(700,600)"/>
<circle cx="750.0" cy="650.0" r="25" fill="#ba68c8"/>
<rect x="800" y="600" width="100" height="100" fill="#f8f9fa" stroke="none" />
<polygon points="0,0 100,0 0,100" fill="#f3e5f5" transform="translate(800,600)"/>
<circle cx="850.0" cy="650.0" r="9" fill="#e1bee7"/>
<rect x="0" y="700" width="100" height="100" fill="#e9ecef" stroke="none" />
<polygon points="100,0 100,100 0,100" fill="#4a148c" transform="translate(0,700)"/>
<circle cx="50.0" cy="750.0" r="33" fill="#f3e5f5"/>
<rect x="100" y="700" width="100" height="100" fill="#e9ecef" stroke="none" />
<polygon points="0,0 100,0 0,100" fill="#ab47bc" transform="translate(100,700)"/>
<circle cx="150.0" cy="750.0" r="12" fill="#6a1b9a"/>
<rect x="200" y="700" width="100" height="100" fill="#adb5bd" stroke="none" />
<polygon points="100,0 100,100 0,100" fill="#6a1b9a" transform="translate(200,700)"/>
<circle cx="250.0" cy="750.0" r="12" fill="#e1bee7"/>
<rect x="300" y="700" width="100" height="100" fill="#dee2e6" stroke="none" />
<polygon points="100,0 100,100 0,100" fill="#f3e5f5" transform="translate(300,700)"/>
<circle cx="350.0" cy="750.0" r="27" fill="#9c27b0"/>
<rect x="400" y="700" width="100" height="100" fill="#495057" stroke="none" />
<polygon points="100,0 100,100 0,100" fill="#6a1b9a" transform="translate(400,700)"/>
<circle cx="450.0" cy="750.0" r="34" fill="#ce93d8"/>
<rect x="500" y="700" width="100" height="100" fill="#f8f9fa" stroke="none" />
<polygon points="100,0 100,100 0,100" fill="#9c27b0" transform="translate(500,700)"/>
<circle cx="550.0" cy="750.0" r="8" fill="#e1bee7"/>
<rect x="600" y="700" width="100" height="100" fill="#495057" stroke="none" />
<polygon points="100,0 100,100 0,100" fill="#f3e5f5" transform="translate(600,700)"/>
<circle cx="650.0" cy="750.0" r="44" fill="#9c27b0"/>
<rect x="700" y="700" width="100" height="100" fill="#dee2e6" stroke="none" />
<polygon points="100,0 100,100 0,100" fill="#ab47bc" transform="translate(700,700)"/>
<circle cx="750.0" cy="750.0" r="12" fill="#ce93d8"/>
<rect x="800" y="700" width="100" height="100" fill="#dee2e6" stroke="none" />
<polygon points="0,0 100,0 0,100" fill="#f3e5f5" transform="translate(800,700)"/>
<circle cx="850.0" cy="750.0" r="32" fill="#f3e5f5"/>
<rect x="0" y="800" width="100" height="100" fill="#e9ecef" stroke="none" />
<polygon points="0,0 100,0 0,100" fill="#ab47bc" transform="translate(0,800)"/>
<circle cx="50.0" cy="850.0" r="5" fill="#f3e5f5"/>
<rect x="100" y="800" width="100" height="100" fill="#495057" stroke="none" />
<polygon points="0,0 100,0 0,100" fill="#ce93d8" transform="translate(100,800)"/>
<circle cx="150.0" cy="850.0" r="42" fill="#6a1b9a"/>
<rect x="200" y="800" width="100" height="100" fill="#6c757d" stroke="none" />
<polygon points="100,0 100,100 0,100" fill="#ab47bc" transform="translate(200,800)"/>
<circle cx="250.0" cy="850.0" r="29" fill="#6a1b9a"/>
<rect x="300" y="800" width="100" height="100" fill="#f8f9fa" stroke="none" />
<polygon points="0,0 100,0 0,100" fill="#8e24aa" transform="translate(300,800)"/>
<circle cx="350.0" cy="850.0" r="39" fill="#7b1fa2"/>
<rect x="400" y="800" width="100" height="100" fill="#6c757d" stroke="none" />
<polygon points="0,0 100,0 0,100" fill="#7b1fa2" transform="translate(400,800)"/>
<circle cx="450.0" cy="850.0" r="13" fill="#e1bee7"/>
<rect x="500" y="800" width="100" height="100" fill="#adb5bd" stroke="none" />
<polygon points="100,0 100,100 0,100" fill="#e1bee7" transform="translate(500,800)"/>
<circle cx="550.0" cy="850.0" r="16" fill="#7b1fa2"/>
<rect x="600" y="800" width="100" height="100" fill="#343a40" stroke="none" />
<polygon points="100,0 100,100 0,100" fill="#4a148c" transform="translate(600,800)"/>
<circle cx="650.0" cy="850.0" r="37" fill="#f3e5f5"/>
<rect x="700" y="800" width="100" height="100" fill="#343a40" stroke="none" />
<polygon points="100,0 100,100 0,100" fill="#4a148c" transform="translate(700,800)"/>
<circle cx="750.0" cy="850.0" r="38" fill="#f3e5f5"/>
<rect x="800" y="800" width="100" height="100" fill="#343a40" stroke="none" />
<polygon points="100,0 100,100 0,100" fill="#7b1fa2" transform="translate(800,800)"/>
<circle cx="850.0" cy="850.0" r="37" fill="#7b1fa2"/>
</svg>