<svg xmlns="http://www.w3.org/2000/svg"
            xmlns:xlink="http://www.w3.org/1999/xlink"
            version="1.1" 
            baseProfile="full"
            width="1000" height="1000"
            viewBox="0 0 1000 1000">
            <title>TCI Generativ Art Generator 2 Lines Only</title>
            <desc>Generiert mit Python</desc>
            <autor>Thomas Cigolla</autor>
            <date>2022-06-24T15:27:28.246618</date>
            <license>CC BY-NC 4.0</license>
            <rect x="0" y="0" width="1000" height="1000" fill="none" />

            <rect x="0" y="0" width="1000" height="1000" fill="none" stroke="none" />
<rect x="0" y="0" width="1000" height="1000" fill="#e5e353" stroke="none" transform="rotate(-1, 500.0, 500.0)" />
<rect x="5" y="5" width="990" height="990" fill="#00abf2" stroke="none" transform="rotate(-2, 500.0, 500.0)" />
<rect x="10" y="10" width="980" height="980" fill="#00ffff" stroke="none" transform="rotate(1, 500.0, 500.0)" />
<rect x="15" y="15" width="970" height="970" fill="#0054c4" stroke="none" transform="rotate(-1, 500.0, 500.0)" />
<rect x="20" y="20" width="960" height="960" fill="#00ffff" stroke="none" transform="rotate(0, 500.0, 500.0)" />
<rect x="25" y="25" width="950" height="950" fill="#0054c4" stroke="none" transform="rotate(0, 500.0, 500.0)" />
<rect x="30" y="30" width="940" height="940" fill="#ffcf21" stroke="none" transform="rotate(-1, 500.0, 500.0)" />
<rect x="35" y="35" width="930" height="930" fill="#00ffff" stroke="none" transform="rotate(-1, 500.0, 500.0)" />
<rect x="40" y="40" width="920" height="920" fill="#0054c4" stroke="none" transform="rotate(-2, 500.0, 500.0)" />
<rect x="45" y="45" width="910" height="910" fill="#ffcf21" stroke="none" transform="rotate(-1, 500.0, 500.0)" />
<rect x="50" y="50" width="900" height="900" fill="#00abf2" stroke="none" transform="rotate(0, 500.0, 500.0)" />
<rect x="55" y="55" width="890" height="890" fill="#00abf2" stroke="none" transform="rotate(-1, 500.0, 500.0)" />
<rect x="60" y="60" width="880" height="880" fill="#ffcf21" stroke="none" transform="rotate(-2, 500.0, 500.0)" />
<rect x="65" y="65" width="870" height="870" fill="#00abf2" stroke="none" transform="rotate(1, 500.0, 500.0)" />
<rect x="70" y="70" width="860" height="860" fill="#0054c4" stroke="none" transform="rotate(-1, 500.0, 500.0)" />
<rect x="75" y="75" width="850" height="850" fill="#00ffff" stroke="none" transform="rotate(-2, 500.0, 500.0)" />
<rect x="80" y="80" width="840" height="840" fill="#00abf2" stroke="none" transform="rotate(1, 500.0, 500.0)" />
<rect x="85" y="85" width="830" height="830" fill="#e5e353" stroke="none" transform="rotate(1, 500.0, 500.0)" />
<rect x="90" y="90" width="820" height="820" fill="#ffcf21" stroke="none" transform="rotate(-2, 500.0, 500.0)" />
<rect x="95" y="95" width="810" height="810" fill="#ffcf21" stroke="none" transform="rotate(0, 500.0, 500.0)" />
<rect x="100" y="100" width="800" height="800" fill="#00abf2" stroke="none" transform="rotate(-2, 500.0, 500.0)" />
<rect x="105" y="105" width="790" height="790" fill="#00abf2" stroke="none" transform="rotate(-2, 500.0, 500.0)" />
<rect x="110" y="110" width="780" height="780" fill="#e5e353" stroke="none" transform="rotate(-1, 500.0, 500.0)" />
<rect x="115" y="115" width="770" height="770" fill="#0054c4" stroke="none" transform="rotate(-2, 500.0, 500.0)" />
<rect x="120" y="120" width="760" height="760" fill="#0054c4" stroke="none" transform="rotate(0, 500.0, 500.0)" />
<rect x="125" y="125" width="750" height="750" fill="#e5e353" stroke="none" transform="rotate(0, 500.0, 500.0)" />
<rect x="130" y="130" width="740" height="740" fill="#00abf2" stroke="none" transform="rotate(-2, 500.0, 500.0)" />
<rect x="135" y="135" width="730" height="730" fill="#ffcf21" stroke="none" transform="rotate(1, 500.0, 500.0)" />
<rect x="140" y="140" width="720" height="720" fill="#0054c4" stroke="none" transform="rotate(0, 500.0, 500.0)" />
<rect x="145" y="145" width="710" height="710" fill="#00abf2" stroke="none" transform="rotate(-2, 500.0, 500.0)" />
<rect x="150" y="150" width="700" height="700" fill="#ffcf21" stroke="none" transform="rotate(-1, 500.0, 500.0)" />
<rect x="155" y="155" width="690" height="690" fill="#ffcf21" stroke="none" transform="rotate(1, 500.0, 500.0)" />
<rect x="160" y="160" width="680" height="680" fill="#00abf2" stroke="none" transform="rotate(0, 500.0, 500.0)" />
<rect x="165" y="165" width="670" height="670" fill="#e5e353" stroke="none" transform="rotate(1, 500.0, 500.0)" />
<rect x="170" y="170" width="660" height="660" fill="#00abf2" stroke="none" transform="rotate(1, 500.0, 500.0)" />
<rect x="175" y="175" width="650" height="650" fill="#e5e353" stroke="none" transform="rotate(-1, 500.0, 500.0)" />
<rect x="180" y="180" width="640" height="640" fill="#00abf2" stroke="none" transform="rotate(0, 500.0, 500.0)" />
<rect x="185" y="185" width="630" height="630" fill="#00ffff" stroke="none" transform="rotate(1, 500.0, 500.0)" />
<rect x="190" y="190" width="620" height="620" fill="#00ffff" stroke="none" transform="rotate(0, 500.0, 500.0)" />
<rect x="195" y="195" width="610" height="610" fill="#00abf2" stroke="none" transform="rotate(1, 500.0, 500.0)" />
<rect x="200" y="200" width="600" height="600" fill="#00ffff" stroke="none" transform="rotate(-2, 500.0, 500.0)" />
<rect x="205" y="205" width="590" height="590" fill="#0054c4" stroke="none" transform="rotate(-2, 500.0, 500.0)" />
<rect x="210" y="210" width="580" height="580" fill="#00ffff" stroke="none" transform="rotate(-2, 500.0, 500.0)" />
<rect x="215" y="215" width="570" height="570" fill="#e5e353" stroke="none" transform="rotate(-1, 500.0, 500.0)" />
<rect x="220" y="220" width="560" height="560" fill="#0054c4" stroke="none" transform="rotate(-1, 500.0, 500.0)" />
<rect x="225" y="225" width="550" height="550" fill="#ffcf21" stroke="none" transform="rotate(-1, 500.0, 500.0)" />
<rect x="230" y="230" width="540" height="540" fill="#00ffff" stroke="none" transform="rotate(-1, 500.0, 500.0)" />
<rect x="235" y="235" width="530" height="530" fill="#00ffff" stroke="none" transform="rotate(1, 500.0, 500.0)" />
<rect x="240" y="240" width="520" height="520" fill="#00abf2" stroke="none" transform="rotate(-2, 500.0, 500.0)" />
<rect x="245" y="245" width="510" height="510" fill="#00abf2" stroke="none" transform="rotate(1, 500.0, 500.0)" />
<rect x="250" y="250" width="500" height="500" fill="#0054c4" stroke="none" transform="rotate(1, 500.0, 500.0)" />
<rect x="255" y="255" width="490" height="490" fill="#00abf2" stroke="none" transform="rotate(1, 500.0, 500.0)" />
<rect x="260" y="260" width="480" height="480" fill="#0054c4" stroke="none" transform="rotate(1, 500.0, 500.0)" />
<rect x="265" y="265" width="470" height="470" fill="#e5e353" stroke="none" transform="rotate(1, 500.0, 500.0)" />
<rect x="270" y="270" width="460" height="460" fill="#00ffff" stroke="none" transform="rotate(-1, 500.0, 500.0)" />
<rect x="275" y="275" width="450" height="450" fill="#e5e353" stroke="none" transform="rotate(0, 500.0, 500.0)" />
<rect x="280" y="280" width="440" height="440" fill="#00abf2" stroke="none" transform="rotate(-2, 500.0, 500.0)" />
<rect x="285" y="285" width="430" height="430" fill="#0054c4" stroke="none" transform="rotate(0, 500.0, 500.0)" />
<rect x="290" y="290" width="420" height="420" fill="#e5e353" stroke="none" transform="rotate(1, 500.0, 500.0)" />
<rect x="295" y="295" width="410" height="410" fill="#ffcf21" stroke="none" transform="rotate(0, 500.0, 500.0)" />
<rect x="300" y="300" width="400" height="400" fill="#00ffff" stroke="none" transform="rotate(1, 500.0, 500.0)" />
<rect x="305" y="305" width="390" height="390" fill="#0054c4" stroke="none" transform="rotate(0, 500.0, 500.0)" />
<rect x="310" y="310" width="380" height="380" fill="#00ffff" stroke="none" transform="rotate(1, 500.0, 500.0)" />
<rect x="315" y="315" width="370" height="370" fill="#ffcf21" stroke="none" transform="rotate(0, 500.0, 500.0)" />
<rect x="320" y="320" width="360" height="360" fill="#00abf2" stroke="none" transform="rotate(0, 500.0, 500.0)" />
<rect x="325" y="325" width="350" height="350" fill="#00ffff" stroke="none" transform="rotate(-1, 500.0, 500.0)" />
<rect x="330" y="330" width="340" height="340" fill="#ffcf21" stroke="none" transform="rotate(-1, 500.0, 500.0)" />
<rect x="335" y="335" width="330" height="330" fill="#e5e353" stroke="none" transform="rotate(0, 500.0, 500.0)" />
<rect x="340" y="340" width="320" height="320" fill="#e5e353" stroke="none" transform="rotate(-2, 500.0, 500.0)" />
<rect x="345" y="345" width="310" height="310" fill="#ffcf21" stroke="none" transform="rotate(-2, 500.0, 500.0)" />
<rect x="350" y="350" width="300" height="300" fill="#0054c4" stroke="none" transform="rotate(-1, 500.0, 500.0)" />
<rect x="355" y="355" width="290" height="290" fill="#0054c4" stroke="none" transform="rotate(-2, 500.0, 500.0)" />
<rect x="360" y="360" width="280" height="280" fill="#00ffff" stroke="none" transform="rotate(1, 500.0, 500.0)" />
<rect x="365" y="365" width="270" height="270" fill="#0054c4" stroke="none" transform="rotate(0, 500.0, 500.0)" />
<rect x="370" y="370" width="260" height="260" fill="#0054c4" stroke="none" transform="rotate(0, 500.0, 500.0)" />
<rect x="375" y="375" width="250" height="250" fill="#e5e353" stroke="none" transform="rotate(-2, 500.0, 500.0)" />
<rect x="380" y="380" width="240" height="240" fill="#00ffff" stroke="none" transform="rotate(1, 500.0, 500.0)" />
<rect x="385" y="385" width="230" height="230" fill="#ffcf21" stroke="none" transform="rotate(1, 500.0, 500.0)" />
<rect x="390" y="390" width="220" height="220" fill="#0054c4" stroke="none" transform="rotate(0, 500.0, 500.0)" />
<rect x="395" y="395" width="210" height="210" fill="#ffcf21" stroke="none" transform="rotate(0, 500.0, 500.0)" />
<rect x="400" y="400" width="200" height="200" fill="#0054c4" stroke="none" transform="rotate(1, 500.0, 500.0)" />
<rect x="405" y="405" width="190" height="190" fill="#ffcf21" stroke="none" transform="rotate(0, 500.0, 500.0)" />
<rect x="410" y="410" width="180" height="180" fill="#00abf2" stroke="none" transform="rotate(-2, 500.0, 500.0)" />
<rect x="415" y="415" width="170" height="170" fill="#e5e353" stroke="none" transform="rotate(-1, 500.0, 500.0)" />
<rect x="420" y="420" width="160" height="160" fill="#00ffff" stroke="none" transform="rotate(1, 500.0, 500.0)" />
<rect x="425" y="425" width="150" height="150" fill="#e5e353" stroke="none" transform="rotate(1, 500.0, 500.0)" />
<rect x="430" y="430" width="140" height="140" fill="#00ffff" stroke="none" transform="rotate(0, 500.0, 500.0)" />
<rect x="435" y="435" width="130" height="130" fill="#0054c4" stroke="none" transform="rotate(-2, 500.0, 500.0)" />
<rect x="440" y="440" width="120" height="120" fill="#ffcf21" stroke="none" transform="rotate(-1, 500.0, 500.0)" />
<rect x="445" y="445" width="110" height="110" fill="#0054c4" stroke="none" transform="rotate(1, 500.0, 500.0)" />
<rect x="450" y="450" width="100" height="100" fill="#00ffff" stroke="none" transform="rotate(-2, 500.0, 500.0)" />
<rect x="455" y="455" width="90" height="90" fill="#e5e353" stroke="none" transform="rotate(-2, 500.0, 500.0)" />
<rect x="460" y="460" width="80" height="80" fill="#0054c4" stroke="none" transform="rotate(-2, 500.0, 500.0)" />
<rect x="465" y="465" width="70" height="70" fill="#00ffff" stroke="none" transform="rotate(0, 500.0, 500.0)" />
<rect x="470" y="470" width="60" height="60" fill="#e5e353" stroke="none" transform="rotate(-1, 500.0, 500.0)" />
<rect x="475" y="475" width="50" height="50" fill="#00abf2" stroke="none" transform="rotate(-2, 500.0, 500.0)" />
<rect x="480" y="480" width="40" height="40" fill="#00ffff" stroke="none" transform="rotate(-1, 500.0, 500.0)" />
<rect x="485" y="485" width="30" height="30" fill="#ffcf21" stroke="none" transform="rotate(1, 500.0, 500.0)" />
<rect x="490" y="490" width="20" height="20" fill="#e5e353" stroke="none" transform="rotate(-2, 500.0, 500.0)" />
<rect x="495" y="495" width="10" height="10" fill="#0054c4" stroke="none" transform="rotate(-2, 500.0, 500.0)" />
</svg>