<svg xmlns="http://www.w3.org/2000/svg"
            xmlns:xlink="http://www.w3.org/1999/xlink"
            version="1.1" 
            baseProfile="full"
            width="900" height="900"
            viewBox="0 0 900 900">
            <title>TCI Generativ Art Generator 2 Semicircle</title>
            <desc>Generiert mit Python</desc>
            <autor>Thomas Cigolla</autor>
            <date>2022-06-24T10:41:38.428957</date>
            <license>CC BY-NC 4.0</license>
            <rect x="0" y="0" width="900" height="900" fill="none" />

            <rect x="0" y="0" width="100" height="100" fill="#18446e" stroke="none" />
<g stroke="none" fill="#e53935" ><path d="M 50.0 0.0 A 50.0 50.0 0 0 0 49.99999999999999 100.0 L 50.0 50.0 Z"/>
</g>
<rect x="100" y="0" width="100" height="100" fill="#77cbbe" stroke="none" />
<g stroke="none" fill="#e53935" ><path d="M 100.0 49.99999999999999 A 50.0 50.0 0 0 0 200.0 50.000000000000014 L 150.0 50.0 Z"/>
</g>
<rect x="200" y="0" width="100" height="100" fill="#1a7886" stroke="none" />
<g stroke="none" fill="#f44336" ><path d="M 200.0 49.99999999999999 A 50.0 50.0 0 0 0 300.0 50.000000000000014 L 250.0 50.0 Z"/>
</g>
<rect x="300" y="0" width="100" height="100" fill="#18446e" stroke="none" />
<g stroke="none" fill="#e53935" ><path d="M 300.0 49.99999999999999 A 50.0 50.0 0 0 0 400.0 50.000000000000014 L 350.0 50.0 Z"/>
</g>
<rect x="400" y="0" width="100" height="100" fill="#77cbbe" stroke="none" />
<g stroke="none" fill="#ffcdd2" ><path d="M 450.0 100.0 A 50.0 50.0 0 0 0 450.0 0.0 L 450.0 50.0 Z"/>
</g>
<rect x="500" y="0" width="100" height="100" fill="#d9d7a5" stroke="none" />
<g stroke="none" fill="#d32f2f" ><path d="M 500.0 49.99999999999999 A 50.0 50.0 0 0 0 600.0 50.000000000000014 L 550.0 50.0 Z"/>
</g>
<g stroke="none" fill="#ffebee" ><path d="M 520.0 49.99999999999999 A 30.0 30.0 0 0 0 580.0 50.00000000000001 L 550.0 50.0 Z"/>
</g>
<rect x="600" y="0" width="100" height="100" fill="#1a7886" stroke="none" />
<g stroke="none" fill="#b71c1c" ><path d="M 650.0 0.0 A 50.0 50.0 0 0 0 650.0 100.0 L 650.0 50.0 Z"/>
</g>
<g stroke="none" fill="#e57373" ><path d="M 650.0 20.0 A 30.0 30.0 0 0 0 650.0 80.0 L 650.0 50.0 Z"/>
</g>
<rect x="700" y="0" width="100" height="100" fill="#18446e" stroke="none" />
<g stroke="none" fill="#ef9a9a" ><path d="M 800.0 50.0 A 50.0 50.0 0 0 0 700.0 49.99999999999999 L 750.0 50.0 Z"/>
</g>
<rect x="800" y="0" width="100" height="100" fill="#d9c681" stroke="none" />
<g stroke="none" fill="#e53935" ><path d="M 800.0 49.99999999999999 A 50.0 50.0 0 0 0 900.0 50.000000000000014 L 850.0 50.0 Z"/>
</g>
<rect x="0" y="100" width="100" height="100" fill="#d9d7a5" stroke="none" />
<g stroke="none" fill="#ffcdd2" ><path d="M 100.0 150.0 A 50.0 50.0 0 0 0 0.0 150.0 L 50.0 150.0 Z"/>
</g>
<g stroke="none" fill="#e53935" ><path d="M 80.0 150.0 A 30.0 30.0 0 0 0 20.0 150.0 L 50.0 150.0 Z"/>
</g>
<rect x="100" y="100" width="100" height="100" fill="#1a7886" stroke="none" />
<g stroke="none" fill="#f44336" ><path d="M 200.0 150.0 A 50.0 50.0 0 0 0 100.0 150.0 L 150.0 150.0 Z"/>
</g>
<rect x="200" y="100" width="100" height="100" fill="#1a7886" stroke="none" />
<g stroke="none" fill="#f44336" ><path d="M 250.0 200.0 A 50.0 50.0 0 0 0 250.00000000000003 100.0 L 250.0 150.0 Z"/>
</g>
<rect x="300" y="100" width="100" height="100" fill="#77cbbe" stroke="none" />
<g stroke="none" fill="#f44336" ><path d="M 400.0 150.0 A 50.0 50.0 0 0 0 300.0 150.0 L 350.0 150.0 Z"/>
</g>
<g stroke="none" fill="#b71c1c" ><path d="M 380.0 150.0 A 30.0 30.0 0 0 0 320.0 150.0 L 350.0 150.0 Z"/>
</g>
<rect x="400" y="100" width="100" height="100" fill="#18446e" stroke="none" />
<g stroke="none" fill="#ef9a9a" ><path d="M 400.0 150.0 A 50.0 50.0 0 0 0 500.0 150.0 L 450.0 150.0 Z"/>
</g>
<g stroke="none" fill="#ffcdd2" ><path d="M 420.0 150.0 A 30.0 30.0 0 0 0 480.0 150.0 L 450.0 150.0 Z"/>
</g>
<rect x="500" y="100" width="100" height="100" fill="#d9c681" stroke="none" />
<g stroke="none" fill="#e57373" ><path d="M 500.0 150.0 A 50.0 50.0 0 0 0 600.0 150.0 L 550.0 150.0 Z"/>
</g>
<g stroke="none" fill="#ffcdd2" ><path d="M 520.0 150.0 A 30.0 30.0 0 0 0 580.0 150.0 L 550.0 150.0 Z"/>
</g>
<rect x="600" y="100" width="100" height="100" fill="#1a7886" stroke="none" />
<g stroke="none" fill="#ffcdd2" ><path d="M 650.0 100.0 A 50.0 50.0 0 0 0 650.0 200.0 L 650.0 150.0 Z"/>
</g>
<g stroke="none" fill="#ffebee" ><path d="M 650.0 120.0 A 30.0 30.0 0 0 0 650.0 180.0 L 650.0 150.0 Z"/>
</g>
<rect x="700" y="100" width="100" height="100" fill="#d9c681" stroke="none" />
<g stroke="none" fill="#ffcdd2" ><path d="M 750.0 100.0 A 50.0 50.0 0 0 0 750.0 200.0 L 750.0 150.0 Z"/>
</g>
<rect x="800" y="100" width="100" height="100" fill="#d9d7a5" stroke="none" />
<g stroke="none" fill="#d32f2f" ><path d="M 900.0 150.0 A 50.0 50.0 0 0 0 800.0 150.0 L 850.0 150.0 Z"/>
</g>
<rect x="0" y="200" width="100" height="100" fill="#18446e" stroke="none" />
<g stroke="none" fill="#e57373" ><path d="M 49.99999999999999 300.0 A 50.0 50.0 0 0 0 50.000000000000014 200.0 L 50.0 250.0 Z"/>
</g>
<g stroke="none" fill="#e57373" ><path d="M 49.99999999999999 280.0 A 30.0 30.0 0 0 0 50.00000000000001 220.0 L 50.0 250.0 Z"/>
</g>
<rect x="100" y="200" width="100" height="100" fill="#1a7886" stroke="none" />
<g stroke="none" fill="#ffcdd2" ><path d="M 150.0 200.0 A 50.0 50.0 0 0 0 150.0 300.0 L 150.0 250.0 Z"/>
</g>
<rect x="200" y="200" width="100" height="100" fill="#d9d7a5" stroke="none" />
<g stroke="none" fill="#e53935" ><path d="M 200.0 250.0 A 50.0 50.0 0 0 0 300.0 250.0 L 250.0 250.0 Z"/>
</g>
<rect x="300" y="200" width="100" height="100" fill="#1a7886" stroke="none" />
<g stroke="none" fill="#ffcdd2" ><path d="M 350.0 200.0 A 50.0 50.0 0 0 0 350.0 300.0 L 350.0 250.0 Z"/>
</g>
<rect x="400" y="200" width="100" height="100" fill="#18446e" stroke="none" />
<g stroke="none" fill="#f44336" ><path d="M 500.0 250.0 A 50.0 50.0 0 0 0 400.0 250.0 L 450.0 250.0 Z"/>
</g>
<rect x="500" y="200" width="100" height="100" fill="#d9d7a5" stroke="none" />
<g stroke="none" fill="#ffebee" ><path d="M 550.0 200.0 A 50.0 50.0 0 0 0 550.0 300.0 L 550.0 250.0 Z"/>
</g>
<rect x="600" y="200" width="100" height="100" fill="#18446e" stroke="none" />
<g stroke="none" fill="#ef5350" ><path d="M 600.0 250.0 A 50.0 50.0 0 0 0 700.0 250.0 L 650.0 250.0 Z"/>
</g>
<g stroke="none" fill="#f44336" ><path d="M 620.0 250.0 A 30.0 30.0 0 0 0 680.0 250.0 L 650.0 250.0 Z"/>
</g>
<rect x="700" y="200" width="100" height="100" fill="#d9d7a5" stroke="none" />
<g stroke="none" fill="#ffebee" ><path d="M 800.0 250.0 A 50.0 50.0 0 0 0 700.0 250.0 L 750.0 250.0 Z"/>
</g>
<rect x="800" y="200" width="100" height="100" fill="#18446e" stroke="none" />
<g stroke="none" fill="#e57373" ><path d="M 800.0 250.0 A 50.0 50.0 0 0 0 900.0 250.0 L 850.0 250.0 Z"/>
</g>
<g stroke="none" fill="#f44336" ><path d="M 820.0 250.0 A 30.0 30.0 0 0 0 880.0 250.0 L 850.0 250.0 Z"/>
</g>
<rect x="0" y="300" width="100" height="100" fill="#18446e" stroke="none" />
<g stroke="none" fill="#f44336" ><path d="M 49.99999999999999 400.0 A 50.0 50.0 0 0 0 50.000000000000014 300.0 L 50.0 350.0 Z"/>
</g>
<rect x="100" y="300" width="100" height="100" fill="#18446e" stroke="none" />
<g stroke="none" fill="#c62828" ><path d="M 100.0 350.0 A 50.0 50.0 0 0 0 200.0 350.0 L 150.0 350.0 Z"/>
</g>
<rect x="200" y="300" width="100" height="100" fill="#77cbbe" stroke="none" />
<g stroke="none" fill="#e53935" ><path d="M 250.0 300.0 A 50.0 50.0 0 0 0 250.0 400.0 L 250.0 350.0 Z"/>
</g>
<g stroke="none" fill="#e53935" ><path d="M 250.0 320.0 A 30.0 30.0 0 0 0 250.0 380.0 L 250.0 350.0 Z"/>
</g>
<rect x="300" y="300" width="100" height="100" fill="#1a7886" stroke="none" />
<g stroke="none" fill="#ffebee" ><path d="M 400.0 350.0 A 50.0 50.0 0 0 0 300.0 350.0 L 350.0 350.0 Z"/>
</g>
<g stroke="none" fill="#c62828" ><path d="M 380.0 350.0 A 30.0 30.0 0 0 0 320.0 350.0 L 350.0 350.0 Z"/>
</g>
<rect x="400" y="300" width="100" height="100" fill="#1a7886" stroke="none" />
<g stroke="none" fill="#f44336" ><path d="M 400.0 350.0 A 50.0 50.0 0 0 0 500.0 350.0 L 450.0 350.0 Z"/>
</g>
<rect x="500" y="300" width="100" height="100" fill="#18446e" stroke="none" />
<g stroke="none" fill="#d32f2f" ><path d="M 550.0 400.0 A 50.0 50.0 0 0 0 550.0 300.0 L 550.0 350.0 Z"/>
</g>
<g stroke="none" fill="#ef9a9a" ><path d="M 550.0 380.0 A 30.0 30.0 0 0 0 550.0 320.0 L 550.0 350.0 Z"/>
</g>
<rect x="600" y="300" width="100" height="100" fill="#18446e" stroke="none" />
<g stroke="none" fill="#e57373" ><path d="M 650.0 400.0 A 50.0 50.0 0 0 0 650.0 300.0 L 650.0 350.0 Z"/>
</g>
<rect x="700" y="300" width="100" height="100" fill="#1a7886" stroke="none" />
<g stroke="none" fill="#d32f2f" ><path d="M 800.0 350.0 A 50.0 50.0 0 0 0 700.0 350.0 L 750.0 350.0 Z"/>
</g>
<g stroke="none" fill="#ffcdd2" ><path d="M 780.0 350.0 A 30.0 30.0 0 0 0 720.0 350.0 L 750.0 350.0 Z"/>
</g>
<rect x="800" y="300" width="100" height="100" fill="#d9c681" stroke="none" />
<g stroke="none" fill="#e57373" ><path d="M 850.0 300.0 A 50.0 50.0 0 0 0 850.0 400.0 L 850.0 350.0 Z"/>
</g>
<g stroke="none" fill="#d32f2f" ><path d="M 850.0 320.0 A 30.0 30.0 0 0 0 850.0 380.0 L 850.0 350.0 Z"/>
</g>
<rect x="0" y="400" width="100" height="100" fill="#d9d7a5" stroke="none" />
<g stroke="none" fill="#d32f2f" ><path d="M 49.99999999999999 500.0 A 50.0 50.0 0 0 0 50.000000000000014 400.0 L 50.0 450.0 Z"/>
</g>
<g stroke="none" fill="#e53935" ><path d="M 49.99999999999999 480.0 A 30.0 30.0 0 0 0 50.00000000000001 420.0 L 50.0 450.0 Z"/>
</g>
<rect x="100" y="400" width="100" height="100" fill="#18446e" stroke="none" />
<g stroke="none" fill="#f44336" ><path d="M 100.0 450.0 A 50.0 50.0 0 0 0 200.0 450.0 L 150.0 450.0 Z"/>
</g>
<g stroke="none" fill="#ef5350" ><path d="M 120.0 450.0 A 30.0 30.0 0 0 0 180.0 450.0 L 150.0 450.0 Z"/>
</g>
<rect x="200" y="400" width="100" height="100" fill="#d9d7a5" stroke="none" />
<g stroke="none" fill="#e57373" ><path d="M 300.0 450.0 A 50.0 50.0 0 0 0 200.0 450.0 L 250.0 450.0 Z"/>
</g>
<g stroke="none" fill="#e53935" ><path d="M 280.0 450.0 A 30.0 30.0 0 0 0 220.0 450.0 L 250.0 450.0 Z"/>
</g>
<rect x="300" y="400" width="100" height="100" fill="#d9c681" stroke="none" />
<g stroke="none" fill="#ffcdd2" ><path d="M 350.0 500.0 A 50.0 50.0 0 0 0 350.0 400.0 L 350.0 450.0 Z"/>
</g>
<rect x="400" y="400" width="100" height="100" fill="#d9c681" stroke="none" />
<g stroke="none" fill="#b71c1c" ><path d="M 500.0 450.0 A 50.0 50.0 0 0 0 400.0 450.0 L 450.0 450.0 Z"/>
</g>
<rect x="500" y="400" width="100" height="100" fill="#d9c681" stroke="none" />
<g stroke="none" fill="#e53935" ><path d="M 550.0 400.0 A 50.0 50.0 0 0 0 550.0 500.0 L 550.0 450.0 Z"/>
</g>
<rect x="600" y="400" width="100" height="100" fill="#d9c681" stroke="none" />
<g stroke="none" fill="#ef5350" ><path d="M 700.0 450.0 A 50.0 50.0 0 0 0 600.0 450.0 L 650.0 450.0 Z"/>
</g>
<rect x="700" y="400" width="100" height="100" fill="#77cbbe" stroke="none" />
<g stroke="none" fill="#d32f2f" ><path d="M 700.0 450.0 A 50.0 50.0 0 0 0 800.0 450.0 L 750.0 450.0 Z"/>
</g>
<g stroke="none" fill="#e57373" ><path d="M 720.0 450.0 A 30.0 30.0 0 0 0 780.0 450.0 L 750.0 450.0 Z"/>
</g>
<rect x="800" y="400" width="100" height="100" fill="#18446e" stroke="none" />
<g stroke="none" fill="#ffebee" ><path d="M 800.0 450.0 A 50.0 50.0 0 0 0 900.0 450.0 L 850.0 450.0 Z"/>
</g>
<rect x="0" y="500" width="100" height="100" fill="#18446e" stroke="none" />
<g stroke="none" fill="#b71c1c" ><path d="M 49.99999999999999 600.0 A 50.0 50.0 0 0 0 50.000000000000014 500.0 L 50.0 550.0 Z"/>
</g>
<g stroke="none" fill="#b71c1c" ><path d="M 49.99999999999999 580.0 A 30.0 30.0 0 0 0 50.00000000000001 520.0 L 50.0 550.0 Z"/>
</g>
<rect x="100" y="500" width="100" height="100" fill="#18446e" stroke="none" />
<g stroke="none" fill="#ffebee" ><path d="M 150.0 600.0 A 50.0 50.0 0 0 0 150.00000000000003 500.0 L 150.0 550.0 Z"/>
</g>
<g stroke="none" fill="#c62828" ><path d="M 150.0 580.0 A 30.0 30.0 0 0 0 150.0 520.0 L 150.0 550.0 Z"/>
</g>
<rect x="200" y="500" width="100" height="100" fill="#77cbbe" stroke="none" />
<g stroke="none" fill="#e53935" ><path d="M 200.0 550.0 A 50.0 50.0 0 0 0 300.0 550.0 L 250.0 550.0 Z"/>
</g>
<g stroke="none" fill="#ef5350" ><path d="M 220.0 550.0 A 30.0 30.0 0 0 0 280.0 550.0 L 250.0 550.0 Z"/>
</g>
<rect x="300" y="500" width="100" height="100" fill="#18446e" stroke="none" />
<g stroke="none" fill="#e57373" ><path d="M 400.0 550.0 A 50.0 50.0 0 0 0 300.0 550.0 L 350.0 550.0 Z"/>
</g>
<g stroke="none" fill="#c62828" ><path d="M 380.0 550.0 A 30.0 30.0 0 0 0 320.0 550.0 L 350.0 550.0 Z"/>
</g>
<rect x="400" y="500" width="100" height="100" fill="#d9c681" stroke="none" />
<g stroke="none" fill="#b71c1c" ><path d="M 450.0 500.0 A 50.0 50.0 0 0 0 450.0 600.0 L 450.0 550.0 Z"/>
</g>
<g stroke="none" fill="#d32f2f" ><path d="M 450.0 520.0 A 30.0 30.0 0 0 0 450.0 580.0 L 450.0 550.0 Z"/>
</g>
<rect x="500" y="500" width="100" height="100" fill="#18446e" stroke="none" />
<g stroke="none" fill="#ef9a9a" ><path d="M 550.0 500.0 A 50.0 50.0 0 0 0 550.0 600.0 L 550.0 550.0 Z"/>
</g>
<rect x="600" y="500" width="100" height="100" fill="#77cbbe" stroke="none" />
<g stroke="none" fill="#ffebee" ><path d="M 650.0 600.0 A 50.0 50.0 0 0 0 650.0 500.0 L 650.0 550.0 Z"/>
</g>
<g stroke="none" fill="#c62828" ><path d="M 650.0 580.0 A 30.0 30.0 0 0 0 650.0 520.0 L 650.0 550.0 Z"/>
</g>
<rect x="700" y="500" width="100" height="100" fill="#d9d7a5" stroke="none" />
<g stroke="none" fill="#ef5350" ><path d="M 700.0 550.0 A 50.0 50.0 0 0 0 800.0 550.0 L 750.0 550.0 Z"/>
</g>
<g stroke="none" fill="#e53935" ><path d="M 720.0 550.0 A 30.0 30.0 0 0 0 780.0 550.0 L 750.0 550.0 Z"/>
</g>
<rect x="800" y="500" width="100" height="100" fill="#77cbbe" stroke="none" />
<g stroke="none" fill="#c62828" ><path d="M 900.0 550.0 A 50.0 50.0 0 0 0 800.0 550.0 L 850.0 550.0 Z"/>
</g>
<rect x="0" y="600" width="100" height="100" fill="#18446e" stroke="none" />
<g stroke="none" fill="#d32f2f" ><path d="M 49.99999999999999 700.0 A 50.0 50.0 0 0 0 50.000000000000014 600.0 L 50.0 650.0 Z"/>
</g>
<g stroke="none" fill="#ef5350" ><path d="M 49.99999999999999 680.0 A 30.0 30.0 0 0 0 50.00000000000001 620.0 L 50.0 650.0 Z"/>
</g>
<rect x="100" y="600" width="100" height="100" fill="#18446e" stroke="none" />
<g stroke="none" fill="#ffcdd2" ><path d="M 200.0 650.0 A 50.0 50.0 0 0 0 100.0 650.0 L 150.0 650.0 Z"/>
</g>
<rect x="200" y="600" width="100" height="100" fill="#18446e" stroke="none" />
<g stroke="none" fill="#e53935" ><path d="M 250.0 700.0 A 50.0 50.0 0 0 0 250.00000000000003 600.0 L 250.0 650.0 Z"/>
</g>
<g stroke="none" fill="#f44336" ><path d="M 250.0 680.0 A 30.0 30.0 0 0 0 250.0 620.0 L 250.0 650.0 Z"/>
</g>
<rect x="300" y="600" width="100" height="100" fill="#77cbbe" stroke="none" />
<g stroke="none" fill="#d32f2f" ><path d="M 350.0 600.0 A 50.0 50.0 0 0 0 350.0 700.0 L 350.0 650.0 Z"/>
</g>
<rect x="400" y="600" width="100" height="100" fill="#1a7886" stroke="none" />
<g stroke="none" fill="#ef5350" ><path d="M 400.0 650.0 A 50.0 50.0 0 0 0 500.0 650.0 L 450.0 650.0 Z"/>
</g>
<g stroke="none" fill="#f44336" ><path d="M 420.0 650.0 A 30.0 30.0 0 0 0 480.0 650.0 L 450.0 650.0 Z"/>
</g>
<rect x="500" y="600" width="100" height="100" fill="#77cbbe" stroke="none" />
<g stroke="none" fill="#e53935" ><path d="M 550.0 600.0 A 50.0 50.0 0 0 0 550.0 700.0 L 550.0 650.0 Z"/>
</g>
<g stroke="none" fill="#e53935" ><path d="M 550.0 620.0 A 30.0 30.0 0 0 0 550.0 680.0 L 550.0 650.0 Z"/>
</g>
<rect x="600" y="600" width="100" height="100" fill="#d9d7a5" stroke="none" />
<g stroke="none" fill="#e53935" ><path d="M 600.0 650.0 A 50.0 50.0 0 0 0 700.0 650.0 L 650.0 650.0 Z"/>
</g>
<rect x="700" y="600" width="100" height="100" fill="#d9d7a5" stroke="none" />
<g stroke="none" fill="#e57373" ><path d="M 700.0 650.0 A 50.0 50.0 0 0 0 800.0 650.0 L 750.0 650.0 Z"/>
</g>
<rect x="800" y="600" width="100" height="100" fill="#d9c681" stroke="none" />
<g stroke="none" fill="#d32f2f" ><path d="M 850.0 700.0 A 50.0 50.0 0 0 0 850.0 600.0 L 850.0 650.0 Z"/>
</g>
<rect x="0" y="700" width="100" height="100" fill="#1a7886" stroke="none" />
<g stroke="none" fill="#b71c1c" ><path d="M 50.0 700.0 A 50.0 50.0 0 0 0 49.99999999999999 800.0 L 50.0 750.0 Z"/>
</g>
<g stroke="none" fill="#e57373" ><path d="M 50.0 720.0 A 30.0 30.0 0 0 0 49.99999999999999 780.0 L 50.0 750.0 Z"/>
</g>
<rect x="100" y="700" width="100" height="100" fill="#77cbbe" stroke="none" />
<g stroke="none" fill="#c62828" ><path d="M 150.0 800.0 A 50.0 50.0 0 0 0 150.00000000000003 700.0 L 150.0 750.0 Z"/>
</g>
<g stroke="none" fill="#d32f2f" ><path d="M 150.0 780.0 A 30.0 30.0 0 0 0 150.0 720.0 L 150.0 750.0 Z"/>
</g>
<rect x="200" y="700" width="100" height="100" fill="#77cbbe" stroke="none" />
<g stroke="none" fill="#d32f2f" ><path d="M 250.0 800.0 A 50.0 50.0 0 0 0 250.00000000000003 700.0 L 250.0 750.0 Z"/>
</g>
<rect x="300" y="700" width="100" height="100" fill="#77cbbe" stroke="none" />
<g stroke="none" fill="#ffebee" ><path d="M 300.0 750.0 A 50.0 50.0 0 0 0 400.0 750.0 L 350.0 750.0 Z"/>
</g>
<rect x="400" y="700" width="100" height="100" fill="#1a7886" stroke="none" />
<g stroke="none" fill="#ffcdd2" ><path d="M 500.0 750.0 A 50.0 50.0 0 0 0 400.0 750.0 L 450.0 750.0 Z"/>
</g>
<g stroke="none" fill="#c62828" ><path d="M 480.0 750.0 A 30.0 30.0 0 0 0 420.0 750.0 L 450.0 750.0 Z"/>
</g>
<rect x="500" y="700" width="100" height="100" fill="#d9d7a5" stroke="none" />
<g stroke="none" fill="#b71c1c" ><path d="M 500.0 750.0 A 50.0 50.0 0 0 0 600.0 750.0 L 550.0 750.0 Z"/>
</g>
<rect x="600" y="700" width="100" height="100" fill="#77cbbe" stroke="none" />
<g stroke="none" fill="#ffebee" ><path d="M 650.0 700.0 A 50.0 50.0 0 0 0 650.0 800.0 L 650.0 750.0 Z"/>
</g>
<g stroke="none" fill="#e57373" ><path d="M 650.0 720.0 A 30.0 30.0 0 0 0 650.0 780.0 L 650.0 750.0 Z"/>
</g>
<rect x="700" y="700" width="100" height="100" fill="#1a7886" stroke="none" />
<g stroke="none" fill="#b71c1c" ><path d="M 750.0 700.0 A 50.0 50.0 0 0 0 750.0 800.0 L 750.0 750.0 Z"/>
</g>
<g stroke="none" fill="#d32f2f" ><path d="M 750.0 720.0 A 30.0 30.0 0 0 0 750.0 780.0 L 750.0 750.0 Z"/>
</g>
<rect x="800" y="700" width="100" height="100" fill="#77cbbe" stroke="none" />
<g stroke="none" fill="#c62828" ><path d="M 800.0 750.0 A 50.0 50.0 0 0 0 900.0 750.0 L 850.0 750.0 Z"/>
</g>
<rect x="0" y="800" width="100" height="100" fill="#77cbbe" stroke="none" />
<g stroke="none" fill="#c62828" ><path d="M 50.0 800.0 A 50.0 50.0 0 0 0 49.99999999999999 900.0 L 50.0 850.0 Z"/>
</g>
<g stroke="none" fill="#ef5350" ><path d="M 50.0 820.0 A 30.0 30.0 0 0 0 49.99999999999999 880.0 L 50.0 850.0 Z"/>
</g>
<rect x="100" y="800" width="100" height="100" fill="#77cbbe" stroke="none" />
<g stroke="none" fill="#d32f2f" ><path d="M 200.0 850.0 A 50.0 50.0 0 0 0 100.0 850.0 L 150.0 850.0 Z"/>
</g>
<g stroke="none" fill="#d32f2f" ><path d="M 180.0 850.0 A 30.0 30.0 0 0 0 120.0 850.0 L 150.0 850.0 Z"/>
</g>
<rect x="200" y="800" width="100" height="100" fill="#1a7886" stroke="none" />
<g stroke="none" fill="#ef5350" ><path d="M 250.0 800.0 A 50.0 50.0 0 0 0 250.0 900.0 L 250.0 850.0 Z"/>
</g>
<rect x="300" y="800" width="100" height="100" fill="#d9c681" stroke="none" />
<g stroke="none" fill="#b71c1c" ><path d="M 400.0 850.0 A 50.0 50.0 0 0 0 300.0 850.0 L 350.0 850.0 Z"/>
</g>
<g stroke="none" fill="#ef5350" ><path d="M 380.0 850.0 A 30.0 30.0 0 0 0 320.0 850.0 L 350.0 850.0 Z"/>
</g>
<rect x="400" y="800" width="100" height="100" fill="#d9d7a5" stroke="none" />
<g stroke="none" fill="#ffcdd2" ><path d="M 400.0 850.0 A 50.0 50.0 0 0 0 500.0 850.0 L 450.0 850.0 Z"/>
</g>
<g stroke="none" fill="#d32f2f" ><path d="M 420.0 850.0 A 30.0 30.0 0 0 0 480.0 850.0 L 450.0 850.0 Z"/>
</g>
<rect x="500" y="800" width="100" height="100" fill="#d9d7a5" stroke="none" />
<g stroke="none" fill="#b71c1c" ><path d="M 550.0 800.0 A 50.0 50.0 0 0 0 550.0 900.0 L 550.0 850.0 Z"/>
</g>
<g stroke="none" fill="#ffcdd2" ><path d="M 550.0 820.0 A 30.0 30.0 0 0 0 550.0 880.0 L 550.0 850.0 Z"/>
</g>
<rect x="600" y="800" width="100" height="100" fill="#d9c681" stroke="none" />
<g stroke="none" fill="#e53935" ><path d="M 650.0 900.0 A 50.0 50.0 0 0 0 650.0 800.0 L 650.0 850.0 Z"/>
</g>
<rect x="700" y="800" width="100" height="100" fill="#d9d7a5" stroke="none" />
<g stroke="none" fill="#c62828" ><path d="M 800.0 850.0 A 50.0 50.0 0 0 0 700.0 850.0 L 750.0 850.0 Z"/>
</g>
<rect x="800" y="800" width="100" height="100" fill="#1a7886" stroke="none" />
<g stroke="none" fill="#e53935" ><path d="M 850.0 900.0 A 50.0 50.0 0 0 0 850.0 800.0 L 850.0 850.0 Z"/>
</g>
<g stroke="none" fill="#d32f2f" ><path d="M 850.0 880.0 A 30.0 30.0 0 0 0 850.0 820.0 L 850.0 850.0 Z"/>
</g>
</svg>