<svg xmlns="http://www.w3.org/2000/svg"
            xmlns:xlink="http://www.w3.org/1999/xlink"
            version="1.1" 
            baseProfile="full"
            width="900" height="900"
            viewBox="0 0 900 900">
            <title>TCI Generativ Art Generator 2 Lines Only</title>
            <desc>Generiert mit Python</desc>
            <autor>Thomas Cigolla</autor>
            <date>2022-06-21T15:44:02.670686</date>
            <license>CC BY-NC 4.0</license>


            <rect x="0" y="0" width="900" height="900" fill="none" />

            <rect x="0" y="0" width="100" height="100" fill="#cccccc" stroke="none" />
<polygon points="0,100 50,0 100,100" fill="#f57c00" transform="translate(0,0)"/>
<rect x="100" y="0" width="100" height="100" fill="#a5a5a5" stroke="none" />
<polygon points="100,0 100,100 0,100" fill="#ffe0b2" transform="translate(100,0)"/>
<rect x="200" y="0" width="100" height="100" fill="#cccccc" stroke="none" />
<polygon points="0,0 100,100 0,100" fill="#ffcc80" transform="translate(200,0)"/>
<rect x="300" y="0" width="100" height="100" fill="#cccccc" stroke="none" />
<polygon points="0,0 50,100 100,0" fill="#ffa726" transform="translate(300,0)"/>
<rect x="400" y="0" width="100" height="100" fill="#a5a5a5" stroke="none" />
<polygon points="0,0 50,100 100,0" fill="#fb8c00" transform="translate(400,0)"/>
<rect x="500" y="0" width="100" height="100" fill="#f2f2f2" stroke="none" />
<polygon points="0,0 100,0 0,100" fill="#ff9800" transform="translate(500,0)"/>
<rect x="600" y="0" width="100" height="100" fill="#cccccc" stroke="none" />
<polygon points="0,100 50,0 100,100" fill="#ffa726" transform="translate(600,0)"/>
<rect x="700" y="0" width="100" height="100" fill="#7f7f7f" stroke="none" />
<polygon points="0,0 100,50 0,100" fill="#ff9800" transform="translate(700,0)"/>
<rect x="800" y="0" width="100" height="100" fill="#595959" stroke="none" />
<polygon points="100,0 100,100 0,100" fill="#ef6c00" transform="translate(800,0)"/>
<rect x="0" y="100" width="100" height="100" fill="#f2f2f2" stroke="none" />
<polygon points="0,0 100,50 0,100" fill="#ef6c00" transform="translate(0,100)"/>
<rect x="100" y="100" width="100" height="100" fill="#a5a5a5" stroke="none" />
<polygon points="0,0 50,100 100,0" fill="#f57c00" transform="translate(100,100)"/>
<rect x="200" y="100" width="100" height="100" fill="#a5a5a5" stroke="none" />
<polygon points="0,50 100,0 100,100" fill="#ffb74d" transform="translate(200,100)"/>
<rect x="300" y="100" width="100" height="100" fill="#f2f2f2" stroke="none" />
<polygon points="0,0 100,0 100,100" fill="#ff9800" transform="translate(300,100)"/>
<rect x="400" y="100" width="100" height="100" fill="#595959" stroke="none" />
<polygon points="0,50 100,0 100,100" fill="#e65100" transform="translate(400,100)"/>
<rect x="500" y="100" width="100" height="100" fill="#cccccc" stroke="none" />
<polygon points="0,0 50,100 100,0" fill="#ffe0b2" transform="translate(500,100)"/>
<rect x="600" y="100" width="100" height="100" fill="#f2f2f2" stroke="none" />
<polygon points="0,0 50,100 100,0" fill="#ffb74d" transform="translate(600,100)"/>
<rect x="700" y="100" width="100" height="100" fill="#f2f2f2" stroke="none" />
<polygon points="0,0 100,0 0,100" fill="#ffb74d" transform="translate(700,100)"/>
<rect x="800" y="100" width="100" height="100" fill="#a5a5a5" stroke="none" />
<polygon points="100,0 100,100 0,100" fill="#ef6c00" transform="translate(800,100)"/>
<rect x="0" y="200" width="100" height="100" fill="#a5a5a5" stroke="none" />
<polygon points="100,0 100,100 0,100" fill="#ef6c00" transform="translate(0,200)"/>
<rect x="100" y="200" width="100" height="100" fill="#a5a5a5" stroke="none" />
<polygon points="0,0 100,0 100,100" fill="#fff3e0" transform="translate(100,200)"/>
<rect x="200" y="200" width="100" height="100" fill="#a5a5a5" stroke="none" />
<polygon points="0,0 100,0 0,100" fill="#f57c00" transform="translate(200,200)"/>
<rect x="300" y="200" width="100" height="100" fill="#595959" stroke="none" />
<polygon points="100,0 100,100 0,100" fill="#fb8c00" transform="translate(300,200)"/>
<rect x="400" y="200" width="100" height="100" fill="#f2f2f2" stroke="none" />
<polygon points="0,0 100,0 100,100" fill="#ffe0b2" transform="translate(400,200)"/>
<rect x="500" y="200" width="100" height="100" fill="#a5a5a5" stroke="none" />
<polygon points="0,0 100,0 100,100" fill="#f57c00" transform="translate(500,200)"/>
<rect x="600" y="200" width="100" height="100" fill="#7f7f7f" stroke="none" />
<polygon points="0,100 50,0 100,100" fill="#ff9800" transform="translate(600,200)"/>
<rect x="700" y="200" width="100" height="100" fill="#cccccc" stroke="none" />
<polygon points="0,0 100,50 0,100" fill="#fff3e0" transform="translate(700,200)"/>
<rect x="800" y="200" width="100" height="100" fill="#595959" stroke="none" />
<polygon points="0,0 100,0 100,100" fill="#ffb74d" transform="translate(800,200)"/>
<rect x="0" y="300" width="100" height="100" fill="#f2f2f2" stroke="none" />
<polygon points="0,0 100,0 100,100" fill="#f57c00" transform="translate(0,300)"/>
<rect x="100" y="300" width="100" height="100" fill="#595959" stroke="none" />
<polygon points="0,100 50,0 100,100" fill="#e65100" transform="translate(100,300)"/>
<rect x="200" y="300" width="100" height="100" fill="#595959" stroke="none" />
<polygon points="0,50 100,0 100,100" fill="#ef6c00" transform="translate(200,300)"/>
<rect x="300" y="300" width="100" height="100" fill="#f2f2f2" stroke="none" />
<polygon points="0,0 100,50 0,100" fill="#ffa726" transform="translate(300,300)"/>
<rect x="400" y="300" width="100" height="100" fill="#595959" stroke="none" />
<polygon points="0,0 100,0 100,100" fill="#ff9800" transform="translate(400,300)"/>
<rect x="500" y="300" width="100" height="100" fill="#cccccc" stroke="none" />
<polygon points="0,0 100,0 0,100" fill="#ff9800" transform="translate(500,300)"/>
<rect x="600" y="300" width="100" height="100" fill="#cccccc" stroke="none" />
<polygon points="0,0 100,100 0,100" fill="#fff3e0" transform="translate(600,300)"/>
<rect x="700" y="300" width="100" height="100" fill="#a5a5a5" stroke="none" />
<polygon points="0,100 50,0 100,100" fill="#ffa726" transform="translate(700,300)"/>
<rect x="800" y="300" width="100" height="100" fill="#f2f2f2" stroke="none" />
<polygon points="0,0 100,0 0,100" fill="#e65100" transform="translate(800,300)"/>
<rect x="0" y="400" width="100" height="100" fill="#a5a5a5" stroke="none" />
<polygon points="0,0 100,0 0,100" fill="#ff9800" transform="translate(0,400)"/>
<rect x="100" y="400" width="100" height="100" fill="#a5a5a5" stroke="none" />
<polygon points="0,0 100,0 0,100" fill="#f57c00" transform="translate(100,400)"/>
<rect x="200" y="400" width="100" height="100" fill="#f2f2f2" stroke="none" />
<polygon points="0,0 100,50 0,100" fill="#ff9800" transform="translate(200,400)"/>
<rect x="300" y="400" width="100" height="100" fill="#cccccc" stroke="none" />
<polygon points="0,100 50,0 100,100" fill="#ffb74d" transform="translate(300,400)"/>
<rect x="400" y="400" width="100" height="100" fill="#cccccc" stroke="none" />
<polygon points="0,0 100,0 100,100" fill="#ffe0b2" transform="translate(400,400)"/>
<rect x="500" y="400" width="100" height="100" fill="#7f7f7f" stroke="none" />
<polygon points="0,100 50,0 100,100" fill="#f57c00" transform="translate(500,400)"/>
<rect x="600" y="400" width="100" height="100" fill="#595959" stroke="none" />
<polygon points="0,0 100,0 100,100" fill="#ffcc80" transform="translate(600,400)"/>
<rect x="700" y="400" width="100" height="100" fill="#7f7f7f" stroke="none" />
<polygon points="0,0 100,50 0,100" fill="#ffcc80" transform="translate(700,400)"/>
<rect x="800" y="400" width="100" height="100" fill="#a5a5a5" stroke="none" />
<polygon points="0,0 100,100 0,100" fill="#ffcc80" transform="translate(800,400)"/>
<rect x="0" y="500" width="100" height="100" fill="#a5a5a5" stroke="none" />
<polygon points="0,50 100,0 100,100" fill="#e65100" transform="translate(0,500)"/>
<rect x="100" y="500" width="100" height="100" fill="#a5a5a5" stroke="none" />
<polygon points="100,0 100,100 0,100" fill="#ffcc80" transform="translate(100,500)"/>
<rect x="200" y="500" width="100" height="100" fill="#a5a5a5" stroke="none" />
<polygon points="100,0 100,100 0,100" fill="#ffb74d" transform="translate(200,500)"/>
<rect x="300" y="500" width="100" height="100" fill="#7f7f7f" stroke="none" />
<polygon points="0,100 50,0 100,100" fill="#ffcc80" transform="translate(300,500)"/>
<rect x="400" y="500" width="100" height="100" fill="#7f7f7f" stroke="none" />
<polygon points="0,100 50,0 100,100" fill="#ffcc80" transform="translate(400,500)"/>
<rect x="500" y="500" width="100" height="100" fill="#a5a5a5" stroke="none" />
<polygon points="0,0 100,0 100,100" fill="#ff9800" transform="translate(500,500)"/>
<rect x="600" y="500" width="100" height="100" fill="#f2f2f2" stroke="none" />
<polygon points="0,100 50,0 100,100" fill="#f57c00" transform="translate(600,500)"/>
<rect x="700" y="500" width="100" height="100" fill="#cccccc" stroke="none" />
<polygon points="100,0 100,100 0,100" fill="#ffe0b2" transform="translate(700,500)"/>
<rect x="800" y="500" width="100" height="100" fill="#a5a5a5" stroke="none" />
<polygon points="0,0 50,100 100,0" fill="#fff3e0" transform="translate(800,500)"/>
<rect x="0" y="600" width="100" height="100" fill="#595959" stroke="none" />
<polygon points="0,100 50,0 100,100" fill="#fff3e0" transform="translate(0,600)"/>
<rect x="100" y="600" width="100" height="100" fill="#595959" stroke="none" />
<polygon points="0,0 50,100 100,0" fill="#fff3e0" transform="translate(100,600)"/>
<rect x="200" y="600" width="100" height="100" fill="#7f7f7f" stroke="none" />
<polygon points="0,50 100,0 100,100" fill="#fff3e0" transform="translate(200,600)"/>
<rect x="300" y="600" width="100" height="100" fill="#cccccc" stroke="none" />
<polygon points="0,0 100,100 0,100" fill="#e65100" transform="translate(300,600)"/>
<rect x="400" y="600" width="100" height="100" fill="#595959" stroke="none" />
<polygon points="0,50 100,0 100,100" fill="#e65100" transform="translate(400,600)"/>
<rect x="500" y="600" width="100" height="100" fill="#cccccc" stroke="none" />
<polygon points="0,0 100,0 100,100" fill="#ffb74d" transform="translate(500,600)"/>
<rect x="600" y="600" width="100" height="100" fill="#7f7f7f" stroke="none" />
<polygon points="100,0 100,100 0,100" fill="#ffb74d" transform="translate(600,600)"/>
<rect x="700" y="600" width="100" height="100" fill="#7f7f7f" stroke="none" />
<polygon points="100,0 100,100 0,100" fill="#ffcc80" transform="translate(700,600)"/>
<rect x="800" y="600" width="100" height="100" fill="#f2f2f2" stroke="none" />
<polygon points="0,0 100,0 100,100" fill="#ffcc80" transform="translate(800,600)"/>
<rect x="0" y="700" width="100" height="100" fill="#595959" stroke="none" />
<polygon points="0,0 100,100 0,100" fill="#ffa726" transform="translate(0,700)"/>
<rect x="100" y="700" width="100" height="100" fill="#7f7f7f" stroke="none" />
<polygon points="0,100 50,0 100,100" fill="#ffa726" transform="translate(100,700)"/>
<rect x="200" y="700" width="100" height="100" fill="#7f7f7f" stroke="none" />
<polygon points="0,0 50,100 100,0" fill="#ffcc80" transform="translate(200,700)"/>
<rect x="300" y="700" width="100" height="100" fill="#7f7f7f" stroke="none" />
<polygon points="0,100 50,0 100,100" fill="#ff9800" transform="translate(300,700)"/>
<rect x="400" y="700" width="100" height="100" fill="#7f7f7f" stroke="none" />
<polygon points="100,0 100,100 0,100" fill="#e65100" transform="translate(400,700)"/>
<rect x="500" y="700" width="100" height="100" fill="#7f7f7f" stroke="none" />
<polygon points="100,0 100,100 0,100" fill="#ef6c00" transform="translate(500,700)"/>
<rect x="600" y="700" width="100" height="100" fill="#a5a5a5" stroke="none" />
<polygon points="0,0 100,50 0,100" fill="#fff3e0" transform="translate(600,700)"/>
<rect x="700" y="700" width="100" height="100" fill="#7f7f7f" stroke="none" />
<polygon points="0,0 100,0 0,100" fill="#ffa726" transform="translate(700,700)"/>
<rect x="800" y="700" width="100" height="100" fill="#f2f2f2" stroke="none" />
<polygon points="100,0 100,100 0,100" fill="#ffe0b2" transform="translate(800,700)"/>
<rect x="0" y="800" width="100" height="100" fill="#595959" stroke="none" />
<polygon points="0,0 100,0 0,100" fill="#ffcc80" transform="translate(0,800)"/>
<rect x="100" y="800" width="100" height="100" fill="#f2f2f2" stroke="none" />
<polygon points="0,0 100,0 0,100" fill="#ef6c00" transform="translate(100,800)"/>
<rect x="200" y="800" width="100" height="100" fill="#cccccc" stroke="none" />
<polygon points="0,0 100,0 0,100" fill="#fb8c00" transform="translate(200,800)"/>
<rect x="300" y="800" width="100" height="100" fill="#cccccc" stroke="none" />
<polygon points="0,0 100,100 0,100" fill="#fb8c00" transform="translate(300,800)"/>
<rect x="400" y="800" width="100" height="100" fill="#cccccc" stroke="none" />
<polygon points="0,0 100,100 0,100" fill="#ffe0b2" transform="translate(400,800)"/>
<rect x="500" y="800" width="100" height="100" fill="#595959" stroke="none" />
<polygon points="0,50 100,0 100,100" fill="#ffe0b2" transform="translate(500,800)"/>
<rect x="600" y="800" width="100" height="100" fill="#cccccc" stroke="none" />
<polygon points="0,0 100,0 100,100" fill="#ffe0b2" transform="translate(600,800)"/>
<rect x="700" y="800" width="100" height="100" fill="#595959" stroke="none" />
<polygon points="0,0 100,100 0,100" fill="#ffa726" transform="translate(700,800)"/>
<rect x="800" y="800" width="100" height="100" fill="#cccccc" stroke="none" />
<polygon points="0,100 50,0 100,100" fill="#ffcc80" transform="translate(800,800)"/>
</svg>